<?xml version="1.0" encoding="utf-8"?>
<!-- Generator: Adobe Illustrator 15.1.0, SVG Export Plug-In . SVG Version: 6.00 Build 0)  -->
<!DOCTYPE svg PUBLIC "-//W3C//DTD SVG 1.1//EN" "http://www.w3.org/Graphics/SVG/1.1/DTD/svg11.dtd">
<svg version="1.1" id="レイヤー_1" xmlns="http://www.w3.org/2000/svg" xmlns:xlink="http://www.w3.org/1999/xlink" x="0px"
	 y="0px" width="72.659px" height="34.383px" viewBox="0 0 72.659 34.383" style="enable-background:new 0 0 72.659 34.383;"
	 xml:space="preserve">
<g>
	<path d="M9.441,18.769v7.711c0,0.094-0.029,0.172-0.088,0.234c-0.078,0.09-0.188,0.135-0.328,0.135c-0.273,0-0.41-0.123-0.41-0.369
		v-6.129c-0.586,1.008-0.998,1.512-1.236,1.512c-0.063,0-0.121-0.025-0.176-0.076c-0.074-0.066-0.111-0.135-0.111-0.205
		c0-0.082,0.096-0.268,0.287-0.557c0.672-1.031,1.32-2.469,1.945-4.313c0.098-0.285,0.244-0.428,0.439-0.428
		c0.066,0,0.135,0.016,0.205,0.047c0.148,0.066,0.223,0.184,0.223,0.352c0,0.098-0.049,0.287-0.146,0.568
		C9.861,17.783,9.66,18.289,9.441,18.769z M16.683,25.929l-5.162,0.234v0.158c0,0.074-0.029,0.141-0.088,0.199
		c-0.09,0.09-0.199,0.135-0.328,0.135c-0.168,0-0.293-0.066-0.375-0.199c-0.023-0.039-0.035-0.084-0.035-0.135v-9.094
		c0-0.105,0.047-0.191,0.141-0.258c0.086-0.063,0.174-0.094,0.264-0.094c0.172,0,0.299,0.066,0.381,0.199
		c0.023,0.039,0.037,0.09,0.041,0.152l5.15-0.469c0.027-0.004,0.055-0.006,0.082-0.006c0.281,0,0.494,0.121,0.639,0.363
		c0.078,0.133,0.117,0.281,0.117,0.445v8.889c0,0.07-0.021,0.133-0.064,0.188c-0.086,0.109-0.205,0.164-0.357,0.164
		c-0.16,0-0.279-0.063-0.357-0.188c-0.031-0.051-0.047-0.105-0.047-0.164V25.929z M16.683,25.185v-7.453
		c0-0.141-0.07-0.213-0.211-0.217h-0.018l-4.934,0.457v7.447L16.683,25.185z M14.363,21.64l0.756-0.082
		c0.035-0.004,0.061-0.006,0.076-0.006c0.168,0,0.311,0.055,0.428,0.164c0.129,0.125,0.193,0.281,0.193,0.469
		c0,0.059-0.004,0.109-0.012,0.152l-0.246,1.184c0.105,0.07,0.158,0.18,0.158,0.328c0,0.121-0.053,0.219-0.158,0.293
		c-0.031,0.027-0.066,0.041-0.105,0.041l-2.174,0.146l0.018,0.17c0,0.004,0,0.008,0,0.012c0,0.066-0.038,0.129-0.114,0.188
		s-0.157,0.088-0.243,0.088c-0.121,0-0.217-0.055-0.287-0.164c-0.023-0.039-0.037-0.08-0.041-0.123l-0.264-2.654
		c0-0.078,0.039-0.146,0.117-0.205c0.078-0.055,0.154-0.082,0.229-0.082c0.156,0,0.268,0.072,0.334,0.217l0.568-0.053v-1.307
		l-1.43,0.135c-0.004,0-0.008,0-0.012,0c-0.074,0-0.143-0.035-0.205-0.105c-0.07-0.082-0.105-0.172-0.105-0.27
		c0-0.215,0.084-0.33,0.252-0.346l1.5-0.152v-1.189c0-0.105,0.045-0.189,0.135-0.252c0.078-0.059,0.162-0.088,0.252-0.088
		c0.086,0,0.166,0.025,0.24,0.076c0.094,0.066,0.141,0.154,0.141,0.264v1.113l1.482-0.158c0.242,0,0.363,0.125,0.363,0.375
		c0,0.215-0.102,0.34-0.305,0.375l-1.541,0.146V21.64z M14.849,23.533l0.188-1.072c0-0.012,0-0.025,0-0.041
		c0-0.098-0.049-0.148-0.146-0.152h-0.018h-0.018l-1.752,0.176l0.111,1.195L14.849,23.533z"/>
	<path d="M20.205,18.763c0.211,0,0.316,0.168,0.316,0.504c0,0.875-0.088,1.682-0.264,2.42c-0.07,0.297-0.221,0.445-0.451,0.445
		c-0.113,0-0.213-0.035-0.299-0.105c-0.09-0.07-0.135-0.176-0.135-0.316c0-0.07,0.029-0.205,0.088-0.404
		c0.207-0.691,0.346-1.408,0.416-2.15C19.904,18.894,20.013,18.763,20.205,18.763z M21.898,16.806v9.445
		c0,0.07-0.018,0.135-0.053,0.193c-0.074,0.133-0.201,0.199-0.381,0.199c-0.285,0-0.428-0.131-0.428-0.393v-9.445
		c0-0.266,0.143-0.398,0.428-0.398c0.148,0,0.266,0.051,0.352,0.152C21.871,16.626,21.898,16.708,21.898,16.806z M22.343,18.212
		c0.109,0,0.223,0.082,0.34,0.246c0.477,0.664,0.715,1.102,0.715,1.313c0,0.176-0.074,0.297-0.223,0.363
		c-0.07,0.031-0.139,0.047-0.205,0.047c-0.195,0-0.332-0.135-0.41-0.404c-0.094-0.344-0.229-0.711-0.404-1.102
		c-0.043-0.09-0.064-0.166-0.064-0.229c0-0.074,0.035-0.135,0.105-0.182C22.244,18.23,22.292,18.212,22.343,18.212z M26.75,20.146
		v1.957l1.898-0.152c0.027,0,0.045,0,0.053,0c0.25,0,0.375,0.127,0.375,0.381c0,0.227-0.119,0.348-0.357,0.363l-1.969,0.158v2.332
		l2.795-0.123c0.289,0,0.434,0.131,0.434,0.393c0,0.238-0.121,0.363-0.363,0.375l-6.398,0.287c-0.063,0.004-0.121-0.004-0.176-0.023
		c-0.168-0.059-0.252-0.178-0.252-0.357c0-0.246,0.119-0.375,0.357-0.387l2.713-0.123v-2.309l-1.945,0.152
		c-0.102,0.008-0.193-0.012-0.275-0.059c-0.105-0.063-0.158-0.166-0.158-0.311c0-0.23,0.121-0.355,0.363-0.375l2.016-0.158v-1.945
		l-1.518,0.141c-0.5,1.117-0.889,1.676-1.166,1.676c-0.07,0-0.139-0.023-0.205-0.07c-0.078-0.063-0.117-0.143-0.117-0.24
		c0-0.082,0.068-0.246,0.205-0.492c0.461-0.836,0.814-1.832,1.061-2.988c0.063-0.285,0.201-0.428,0.416-0.428
		c0.297,0,0.445,0.145,0.445,0.434c0,0.23-0.109,0.668-0.328,1.313l1.207-0.111v-2.49c0-0.266,0.148-0.398,0.445-0.398
		c0.152,0,0.271,0.051,0.357,0.152c0.059,0.066,0.088,0.148,0.088,0.246v2.408l1.969-0.182c0.016,0,0.027,0,0.035,0
		c0.16,0,0.275,0.064,0.346,0.193c0.035,0.059,0.053,0.123,0.053,0.193c0,0.234-0.121,0.363-0.363,0.387L26.75,20.146z"/>
	<path d="M31.501,19.279c0.184,0,0.627,0.215,1.33,0.645c0.223,0.133,0.359,0.223,0.41,0.27c0.129,0.117,0.193,0.25,0.193,0.398
		c0,0.105-0.033,0.203-0.1,0.293c-0.082,0.117-0.201,0.176-0.357,0.176c-0.137,0-0.277-0.063-0.422-0.188
		c-0.461-0.398-0.85-0.719-1.166-0.961c-0.125-0.098-0.188-0.201-0.188-0.311c0-0.066,0.023-0.135,0.07-0.205
		C31.328,19.318,31.404,19.279,31.501,19.279z M33.388,22.308c0.242,0,0.363,0.121,0.363,0.363c0,0.113-0.121,0.494-0.363,1.143
		c-0.316,0.84-0.662,1.529-1.037,2.068c-0.121,0.172-0.266,0.258-0.434,0.258c-0.098,0-0.189-0.031-0.275-0.094
		c-0.117-0.086-0.176-0.203-0.176-0.352c0-0.117,0.08-0.293,0.24-0.527c0.496-0.734,0.936-1.57,1.318-2.508
		C33.119,22.425,33.24,22.308,33.388,22.308z M32.316,16.777c0.152,0,0.547,0.195,1.184,0.586c0.234,0.145,0.385,0.244,0.451,0.299
		c0.152,0.117,0.229,0.258,0.229,0.422c0,0.098-0.027,0.188-0.082,0.27c-0.09,0.137-0.215,0.205-0.375,0.205
		c-0.152,0-0.318-0.084-0.498-0.252c-0.152-0.141-0.395-0.348-0.727-0.621c-0.211-0.18-0.33-0.281-0.357-0.305
		C32.046,17.291,32,17.195,32,17.093c0-0.066,0.025-0.135,0.076-0.205C32.13,16.814,32.21,16.777,32.316,16.777z M35.943,18.634
		c0.004,0.375,0.006,0.59,0.006,0.645c0,1.598-0.135,2.943-0.404,4.037c-0.191,0.773-0.559,1.58-1.102,2.42
		c-0.199,0.313-0.336,0.518-0.41,0.615c-0.109,0.141-0.23,0.211-0.363,0.211c-0.059,0-0.119-0.02-0.182-0.059
		c-0.102-0.059-0.152-0.146-0.152-0.264c0-0.094,0.08-0.271,0.24-0.533c0.645-1.074,1.049-2.072,1.213-2.994
		c0.188-1.02,0.281-2.16,0.281-3.422c0-0.348-0.01-0.756-0.029-1.225c0-0.105,0.027-0.191,0.082-0.258
		c0.09-0.102,0.211-0.152,0.363-0.152c0.191,0,0.328,0.084,0.41,0.252c1.043-0.355,2.031-0.814,2.965-1.377
		c0.109-0.066,0.213-0.1,0.311-0.1c0.168,0,0.295,0.074,0.381,0.223c0.043,0.066,0.064,0.135,0.064,0.205
		c0,0.172-0.17,0.342-0.51,0.51C38.126,17.861,37.072,18.283,35.943,18.634z M37.847,20.451v5.941c0,0.074-0.018,0.141-0.053,0.199
		c-0.074,0.133-0.201,0.199-0.381,0.199c-0.285,0-0.428-0.133-0.428-0.398V19.9c0-0.125,0.045-0.225,0.135-0.299
		c0.078-0.07,0.176-0.105,0.293-0.105c0.172,0,0.301,0.068,0.387,0.205c0.777-0.387,1.477-0.791,2.098-1.213
		c0.125-0.086,0.242-0.129,0.352-0.129c0.145,0,0.266,0.066,0.363,0.199c0.055,0.078,0.082,0.152,0.082,0.223
		c0,0.16-0.16,0.334-0.48,0.521C39.617,19.654,38.828,20.037,37.847,20.451z M39.945,22.578c0.57,1.156,1.236,2.1,1.998,2.83
		c0.219,0.215,0.328,0.359,0.328,0.434c0,0.07-0.086,0.129-0.258,0.176c-0.219,0.063-0.408,0.094-0.568,0.094
		c-0.254,0-0.453-0.104-0.598-0.311c-0.852-1.242-1.52-2.537-2.004-3.885c-0.184-0.504-0.275-0.814-0.275-0.932
		c0-0.227,0.123-0.34,0.369-0.34c0.129,0,0.234,0.057,0.316,0.17c0.035,0.055,0.098,0.229,0.188,0.521
		c0.047,0.148,0.123,0.361,0.229,0.639c0.395-0.27,0.799-0.59,1.213-0.961c0.164-0.148,0.324-0.223,0.48-0.223
		c0.117,0,0.215,0.045,0.293,0.135c0.078,0.086,0.117,0.18,0.117,0.281c0,0.156-0.105,0.311-0.316,0.463
		C40.968,22.021,40.464,22.324,39.945,22.578z"/>
	<path d="M47.544,21.365l-1.078,0.117v1.148l1.535-0.223c0.02,0,0.041,0,0.064,0c0.238,0.016,0.357,0.133,0.357,0.352
		c0,0.199-0.113,0.314-0.34,0.346l-1.617,0.234v1.307c0.617-0.152,1.143-0.297,1.576-0.434c0.305-0.094,0.498-0.141,0.58-0.141
		c0.191,0,0.287,0.111,0.287,0.334c0,0.125-0.076,0.225-0.229,0.299c-0.32,0.16-1.102,0.41-2.344,0.75
		c-0.508,0.141-1.061,0.281-1.658,0.422s-0.939,0.211-1.025,0.211c-0.262,0-0.393-0.145-0.393-0.434
		c0-0.184,0.082-0.309,0.246-0.375c0.059-0.02,0.232-0.055,0.521-0.105c0.352-0.063,0.9-0.176,1.646-0.34v-1.383l-1.594,0.229
		c-0.039,0.008-0.068,0.012-0.088,0.012c-0.113,0.004-0.203-0.041-0.27-0.135c-0.043-0.059-0.064-0.129-0.064-0.211
		c0-0.207,0.111-0.326,0.334-0.357l1.682-0.246V21.57l-1.031,0.117c-0.027,0.203-0.156,0.305-0.387,0.305
		c-0.223,0-0.342-0.125-0.357-0.375l-0.264-4.248c0-0.078,0.02-0.145,0.059-0.199c0.074-0.098,0.182-0.146,0.322-0.146
		c0.168,0,0.285,0.068,0.352,0.205l3.299-0.398c0.066-0.008,0.131-0.012,0.193-0.012c0.465,0,0.697,0.229,0.697,0.686
		c0,0.023-0.002,0.055-0.006,0.094l-0.24,3.709c-0.02,0.23-0.152,0.346-0.398,0.346C47.695,21.652,47.572,21.556,47.544,21.365z
		 M45.675,18.939v-1.154l-1.242,0.158l0.064,1.125L45.675,18.939z M45.675,20.849v-1.236l-1.137,0.123l0.07,1.23L45.675,20.849z
		 M47.703,18.728l0.059-0.926c0-0.172-0.074-0.258-0.223-0.258c-0.012,0-0.029,0.002-0.053,0.006l-1.02,0.129v1.178L47.703,18.728z
		 M47.585,20.638l0.076-1.236l-1.195,0.129v1.23L47.585,20.638z M51.494,19.326c0.094,0.07,0.189,0.146,0.287,0.229
		c0.121,0.102,0.182,0.225,0.182,0.369c0,0.09-0.027,0.172-0.082,0.246l1.33-0.135c0.066-0.008,0.121-0.012,0.164-0.012
		c0.352,0,0.527,0.135,0.527,0.404c0,0.289-0.215,0.814-0.645,1.576c-0.152,0.27-0.273,0.461-0.363,0.574
		c-0.098,0.129-0.199,0.193-0.305,0.193c-0.059,0-0.123-0.021-0.193-0.064c-0.094-0.059-0.141-0.145-0.141-0.258
		c0-0.07,0.039-0.178,0.117-0.322c0.117-0.223,0.262-0.586,0.434-1.09c0.023-0.063,0.035-0.105,0.035-0.129
		c0-0.066-0.049-0.094-0.146-0.082l-3.539,0.434c-0.043,0.004-0.082,0.006-0.117,0.006c-0.23,0-0.346-0.139-0.346-0.416
		c0-0.23,0.121-0.357,0.363-0.381l2.215-0.234c-0.023-0.016-0.049-0.039-0.076-0.07c-0.402-0.391-0.824-0.742-1.266-1.055
		c-0.129-0.094-0.193-0.189-0.193-0.287c0-0.059,0.021-0.119,0.064-0.182c0.055-0.082,0.129-0.123,0.223-0.123
		c0.082,0,0.195,0.037,0.34,0.111c0.23,0.109,0.422,0.213,0.574,0.311c0.406-0.363,0.746-0.721,1.02-1.072
		c0.074-0.094,0.111-0.164,0.111-0.211c0-0.059-0.045-0.088-0.135-0.088c-0.008,0-0.031,0.002-0.07,0.006l-2.52,0.264
		c-0.035,0.004-0.066,0.006-0.094,0.006c-0.266,0-0.398-0.123-0.398-0.369c0-0.238,0.117-0.369,0.352-0.393l3.393-0.334
		c0.027-0.004,0.053-0.006,0.076-0.006c0.191,0,0.348,0.055,0.469,0.164c0.102,0.086,0.152,0.189,0.152,0.311
		c0,0.137-0.082,0.307-0.246,0.51C52.515,18.382,51.998,18.916,51.494,19.326z M51.599,21.716v4.365
		c0,0.551-0.213,0.826-0.639,0.826c-0.23,0-0.621-0.109-1.172-0.328c-0.23-0.09-0.418-0.174-0.563-0.252
		c-0.141-0.078-0.211-0.176-0.211-0.293c0-0.184,0.09-0.275,0.27-0.275c0.074,0,0.186,0.023,0.334,0.07
		c0.352,0.105,0.643,0.158,0.873,0.158c0.164,0,0.246-0.092,0.246-0.275v-3.996c0-0.125,0.045-0.225,0.135-0.299
		c0.086-0.066,0.184-0.1,0.293-0.1c0.148,0,0.266,0.051,0.352,0.152C51.572,21.537,51.599,21.619,51.599,21.716z"/>
	<path d="M61.49,23.562c0.684,0.469,1.479,0.912,2.385,1.33c0.602,0.277,1.182,0.498,1.74,0.662
		c0.367,0.109,0.551,0.213,0.551,0.311c0,0.066-0.078,0.131-0.234,0.193c-0.363,0.148-0.641,0.223-0.832,0.223
		c-0.25,0-0.771-0.221-1.564-0.662c-0.813-0.449-1.627-0.996-2.443-1.641v2.584c0,0.09-0.023,0.166-0.07,0.229
		c-0.09,0.113-0.211,0.17-0.363,0.17c-0.172,0-0.297-0.064-0.375-0.193c-0.035-0.063-0.053-0.131-0.053-0.205V24.13
		c-0.93,0.781-1.998,1.426-3.205,1.934c-0.578,0.242-0.947,0.363-1.107,0.363c-0.195,0-0.293-0.105-0.293-0.316
		c0-0.094,0.041-0.172,0.123-0.234c0.039-0.027,0.188-0.088,0.445-0.182c0.828-0.297,1.744-0.801,2.748-1.512
		c0.223-0.156,0.449-0.328,0.68-0.516l-3.445,0.205c-0.094,0.008-0.18-0.012-0.258-0.059c-0.102-0.063-0.152-0.162-0.152-0.299
		c0-0.227,0.117-0.348,0.352-0.363L60.23,22.9v-0.516c0-0.121,0.045-0.217,0.135-0.287c0.082-0.063,0.18-0.094,0.293-0.094
		c0.117,0,0.219,0.033,0.305,0.1s0.129,0.156,0.129,0.27v0.475l4.178-0.258c0.262,0,0.393,0.121,0.393,0.363
		s-0.115,0.369-0.346,0.381L61.49,23.562z M62.474,17.878l-0.064,0.416c-0.035,0.258-0.164,0.387-0.387,0.387
		c-0.238,0-0.361-0.133-0.369-0.398l0.023-0.357l-2.32,0.123l0.053,0.51c0.004,0.023,0.006,0.047,0.006,0.07
		c0,0.234-0.123,0.352-0.369,0.352c-0.254,0-0.4-0.125-0.439-0.375l-0.076-0.51l-2.338,0.129c-0.027,0-0.043,0-0.047,0
		c-0.117,0-0.211-0.043-0.281-0.129c-0.051-0.063-0.076-0.141-0.076-0.234c0-0.227,0.111-0.346,0.334-0.357l2.297-0.129
		l-0.111-0.715c-0.004-0.023-0.006-0.049-0.006-0.076c0-0.16,0.07-0.277,0.211-0.352c0.074-0.035,0.152-0.053,0.234-0.053
		c0.27,0,0.418,0.137,0.445,0.41l0.082,0.738l2.449-0.129l0.053-0.715c0.02-0.281,0.166-0.422,0.439-0.422
		c0.109,0,0.205,0.027,0.287,0.082c0.109,0.078,0.164,0.188,0.164,0.328c0,0.035-0.002,0.063-0.006,0.082l-0.082,0.598l2.35-0.129
		c0.082,0,0.15,0.014,0.205,0.041c0.137,0.066,0.205,0.176,0.205,0.328c0,0.223-0.111,0.34-0.334,0.352L62.474,17.878z
		 M57.33,20.568c0.148,0,0.393,0.191,0.732,0.574c0.332,0.375,0.498,0.646,0.498,0.814c0,0.129-0.055,0.236-0.164,0.322
		c-0.082,0.063-0.174,0.094-0.275,0.094c-0.188,0-0.34-0.117-0.457-0.352c-0.223-0.434-0.404-0.76-0.545-0.979
		c-0.051-0.082-0.076-0.156-0.076-0.223c0-0.082,0.041-0.15,0.123-0.205C57.216,20.583,57.271,20.568,57.33,20.568z M62.556,18.628
		c0.176,0,0.299,0.066,0.369,0.199c0.031,0.055,0.047,0.115,0.047,0.182c0,0.199-0.117,0.338-0.352,0.416
		c-0.508,0.168-1.363,0.357-2.566,0.568c-1.004,0.176-1.605,0.264-1.805,0.264c-0.227,0-0.34-0.117-0.34-0.352
		c0-0.133,0.074-0.225,0.223-0.275c0.031-0.012,0.166-0.035,0.404-0.07c1.02-0.145,2.197-0.418,3.533-0.82
		C62.312,18.666,62.474,18.628,62.556,18.628z M60.078,20.099c0.176,0,0.408,0.176,0.697,0.527c0.32,0.398,0.48,0.688,0.48,0.867
		c0,0.121-0.049,0.221-0.146,0.299c-0.078,0.063-0.172,0.094-0.281,0.094c-0.191,0-0.338-0.123-0.439-0.369
		c-0.16-0.375-0.322-0.674-0.486-0.896c-0.066-0.094-0.1-0.178-0.1-0.252s0.029-0.137,0.088-0.188
		C59.949,20.126,60.011,20.099,60.078,20.099z M63.98,19.748c0.074,0,0.15,0.02,0.229,0.059c0.164,0.078,0.246,0.205,0.246,0.381
		c0,0.223-0.324,0.732-0.973,1.529c-0.277,0.34-0.49,0.51-0.639,0.51c-0.043,0-0.094-0.018-0.152-0.053
		c-0.082-0.051-0.123-0.129-0.123-0.234c0-0.078,0.045-0.182,0.135-0.311c0.336-0.504,0.627-1.023,0.873-1.559
		C63.673,19.855,63.808,19.748,63.98,19.748z"/>
</g>
<g>
	<g>
		<path d="M31.384,9.492c-0.09-1.751-0.471-3.466-0.568-5.218c-0.061-1.104,1.805,0.957,1.973,1.108
			c0.761,0.682,1.231,1.565,2.044,2.214c0.101,0.08,0.409-0.019,0.466-0.125c0.47-0.886,1.75-5.935,2.716-3.179
			c0.503,1.435,0.815,2.93,1.759,4.156c0.082,0.106,0.408-0.045,0.465-0.125c0.335-0.466,3.546-6.23,4.07-3.255
			c0.153,0.869,0.063,1.801,0.05,2.679c-0.025,1.609,0.601,2.733-1.391,1.983c-1.615-0.608-4.224-0.117-5.931-0.107
			c-1.304,0.008-2.532,0.095-3.808,0.348c-0.81,0.161-1.809,0.418-1.846-0.82c-0.003-0.095-0.487-0.015-0.483,0.13
			c0.037,1.232,0.403,1.348,1.457,1.104c3.959-0.92,8.292-0.859,12.217,0.121c0.093,0.023,0.445-0.021,0.438-0.162
			c-0.047-1.043,0.644-7.73-1.729-6.559c-1.213,0.599-2.311,2.229-2.839,3.428c-0.679,1.539-1.313-1.125-1.564-1.809
			c-0.396-1.077-0.522-2.101-1.377-2.916c-0.089-0.084-0.419,0.022-0.466,0.125c-0.353,0.776-0.752,1.485-1.193,2.215
			c-0.183,0.304-0.523,2.627-1.139,2.135c-1.361-1.087-2.117-2.69-3.676-3.623c-0.109-0.065-0.409,0.006-0.466,0.125
			C29.772,5.112,30.812,7.89,30.9,9.622C30.906,9.719,31.391,9.635,31.384,9.492L31.384,9.492z"/>
	</g>
</g>
<g>
	<g>
		<path d="M30.682,2.294c-0.084-0.143-0.135-0.268-0.146-0.434c-0.018-0.262,0.213-0.162,0.354-0.132
			c0.59,0.128,0.277,0.574-0.176,0.494c-0.243-0.043-0.488,0.301-0.165,0.358c0.396,0.07,0.772-0.05,1.05-0.341
			c0.231-0.241,0.15-0.595-0.137-0.739c-0.371-0.187-0.866-0.349-1.223-0.06c-0.33,0.268-0.176,0.767,0.002,1.068
			C30.354,2.702,30.813,2.517,30.682,2.294L30.682,2.294z"/>
	</g>
</g>
<g>
	<g>
		<path d="M36.793,1.118c-0.331-0.042-0.591-0.31-0.669-0.627c-0.019-0.121,0.022-0.211,0.122-0.272
			c0.072,0.054,0.125,0.122,0.157,0.203c0.083,0.16,0.031,0.343-0.047,0.49c-0.031,0.059,0.413,0.031,0.476-0.088
			c0.314-0.595-0.229-0.965-0.767-0.774c-0.773,0.274-0.304,1.169,0.33,1.25C36.506,1.314,36.914,1.133,36.793,1.118L36.793,1.118z"
			/>
	</g>
</g>
<g>
	<g>
		<path d="M44.486,1.97c-0.071-0.046-0.135-0.102-0.188-0.167c-0.126-0.131-0.148-0.741,0.323-0.415
			c0.108,0.075,0.214,0.529,0.016,0.552c-0.224,0.025-0.409,0.28-0.072,0.241c0.296-0.034,0.544-0.161,0.646-0.455
			c0.087-0.252-0.086-0.597-0.363-0.629c-0.642-0.073-1.604,0.445-0.812,1.054C44.162,2.249,44.602,2.06,44.486,1.97L44.486,1.97z"
			/>
	</g>
</g>
<g>
	<g>
		<path d="M25.646,10.373c-3.717-0.797-8.149-0.621-11.883-0.041c-2.338,0.363-6.421-0.1-8.148,2.099
			c0.294-0.374-0.738,0.67-0.713,0.999c0.133,1.775-1.581,0.823-2.168,1.443c-2.301,2.425-1.253,8.596-1.33,11.693
			c-0.029,1.194-0.077,2.76,1.482,2.961c2.295,0.297,1.795,1.518,2.475,2.746c0.27,0.489,2.336,0.61,2.509,0.633
			c4.158,0.552,8.524-0.393,12.694-0.363c5.838,0.042,11.652,0.051,17.49-0.013c4.926-0.054,9.8-0.383,14.711-0.657
			c2.858-0.16,5.631-0.333,8.47-0.749c1.423-0.208,3.588,0.514,4.911-0.21c1.474-0.807,1.254-1.869,3.352-2.018
			c1.628-0.115,1.771-1.577,1.751-2.892c-0.053-3.436,0.059-6.832-0.37-10.244c-0.378-3.014-0.426-4.777-3.533-5.341
			c-1.875-0.34-2.266-1.722-4.169-1.98c-4.617-0.628-9.613-0.166-14.227,0.174c-0.275,0.02-0.37,0.386-0.041,0.361
			c3.548-0.261,6.961-0.39,10.538-0.265c2.271,0.079,3.915,1.336,5.693,1.986c0.392,0.143,6.05,0.262,2.039,0.082
			c3.229,0.145,3.213,4.206,3.213,6.208c0,3.001,0.366,6.014,0.366,9.054c0,2.277-2.01,1.705-3.269,2.35
			c-1.415,0.725-0.706,2.111-2.903,2.375c-7.598,0.91-15.515,1.104-23.18,1.344c-7.551,0.237-15.077,0.116-22.628,0.062
			c-2.026-0.015-12.94,1.804-13.347-1.315c-0.15-1.153-0.522-1.562-1.562-1.694c-3.191-0.403-1.82-7.982-1.7-9.924
			c0.086-1.401-0.375-3.914,1.824-4.296c-0.257,0.045,0.958-0.02,1.169-0.271c4.046-4.837,14.328-5.223,20.319-3.938
			C25.723,10.783,25.966,10.442,25.646,10.373L25.646,10.373z"/>
	</g>
</g>
<g>
	<g>
		<path d="M2.318,10.654c-0.428,0.153-2.15,0.05-1.82-0.741c0.247-0.592,0.906-0.698,1.303-0.229
			c0.256,0.303,0.373,0.955-0.102,1.117c-0.283,0.097-0.215,0.378,0.075,0.279c0.643-0.219,0.952-0.835,0.568-1.453
			c-0.409-0.66-1.165-0.71-1.782-0.308c-0.58,0.377-0.833,1.048-0.152,1.435c0.599,0.34,1.473,0.363,2.11,0.134
			C2.834,10.776,2.55,10.571,2.318,10.654L2.318,10.654z"/>
	</g>
</g>
<g>
	<g>
		<path d="M72.318,31.654c-0.428,0.154-2.15,0.05-1.82-0.741c0.248-0.592,0.907-0.698,1.304-0.229
			c0.256,0.303,0.373,0.955-0.102,1.117c-0.284,0.097-0.216,0.379,0.074,0.279c0.643-0.22,0.952-0.835,0.569-1.453
			c-0.409-0.659-1.166-0.709-1.783-0.308c-0.58,0.377-0.832,1.048-0.152,1.435c0.599,0.34,1.474,0.363,2.111,0.134
			C72.834,31.776,72.55,31.571,72.318,31.654L72.318,31.654z"/>
	</g>
</g>
<g>
	<g>
		<path d="M2.325,32.724c0.206,0.365,0.311,0.778,0.029,1.132c-0.25,0.314-0.719,0.334-1.059,0.18
			c-0.438-0.199-0.485-0.884-0.156-1.199c0.302-0.29,1.281,0.294,1.574,0.44c0.124,0.062,0.571-0.125,0.39-0.216
			c-0.649-0.324-1.376-0.681-2.106-0.418c-0.621,0.223-0.741,1.131-0.232,1.523c0.455,0.352,1.158,0.218,1.631-0.008
			c0.651-0.31,0.745-0.975,0.413-1.565C2.725,32.447,2.264,32.615,2.325,32.724L2.325,32.724z"/>
	</g>
</g>
<g>
	<g>
		<path d="M71.115,8.81c-0.01-0.186-0.008-0.365,0.021-0.548c0.021-0.128,0.145-0.225,0.009-0.222
			c0.161-0.004,0.329,0.23,0.412,0.342c0.279,0.377,0.337,0.889-0.254,0.854c-0.201-0.012-0.508,0.282-0.18,0.302
			c0.386,0.022,0.903-0.034,1.083-0.438c0.15-0.34-0.062-0.744-0.272-1.006c-0.204-0.252-0.521-0.427-0.847-0.323
			c-0.493,0.157-0.478,0.745-0.455,1.169C70.641,9.118,71.125,9.014,71.115,8.81L71.115,8.81z"/>
	</g>
</g>
</svg>
