<?xml version="1.0" encoding="utf-8"?>
<!-- Generator: Adobe Illustrator 15.1.0, SVG Export Plug-In . SVG Version: 6.00 Build 0)  -->
<!DOCTYPE svg PUBLIC "-//W3C//DTD SVG 1.1//EN" "http://www.w3.org/Graphics/SVG/1.1/DTD/svg11.dtd">
<svg version="1.1" id="レイヤー_1" xmlns="http://www.w3.org/2000/svg" xmlns:xlink="http://www.w3.org/1999/xlink" x="0px"
	 y="0px" width="87.296px" height="44.449px" viewBox="0 0 87.296 44.449" style="enable-background:new 0 0 87.296 44.449;"
	 xml:space="preserve">
<g>
	<path d="M18.263,29.207l-0.164-2.402c0-0.016,0-0.039,0-0.07c0-0.25,0.145-0.375,0.434-0.375c0.203,0,0.336,0.09,0.398,0.27
		l5.613-0.352c0.043-0.004,0.086-0.006,0.129-0.006c0.496,0,0.744,0.23,0.744,0.691c0,0.063-0.002,0.121-0.006,0.176l-0.17,1.805
		l1.271-0.053c0.129-0.004,0.236,0.035,0.322,0.117c0.074,0.066,0.111,0.156,0.111,0.27c0,0.129-0.047,0.232-0.141,0.311
		c-0.051,0.043-0.117,0.066-0.199,0.07l-9.645,0.352h-0.041c-0.164,0.008-0.283-0.057-0.357-0.193
		c-0.031-0.051-0.047-0.109-0.047-0.176c0-0.242,0.123-0.367,0.369-0.375L18.263,29.207z M18.509,21.262l3.258-0.211
		c-0.18-0.754-0.27-1.211-0.27-1.371c0-0.25,0.139-0.375,0.416-0.375c0.164,0,0.283,0.09,0.357,0.27
		c0.016,0.043,0.049,0.193,0.1,0.451c0.055,0.293,0.127,0.615,0.217,0.967l2.895-0.188c0.289,0,0.434,0.125,0.434,0.375
		c0,0.23-0.113,0.354-0.34,0.369l-2.771,0.176c0.25,0.75,0.541,1.369,0.873,1.857c0.395-0.461,0.693-0.844,0.896-1.148
		c0.141-0.215,0.297-0.322,0.469-0.322c0.094,0,0.174,0.029,0.24,0.088c0.098,0.078,0.146,0.18,0.146,0.305
		c0,0.109-0.066,0.262-0.199,0.457c-0.285,0.422-0.637,0.844-1.055,1.266c0.543,0.617,1.041,1.043,1.494,1.277
		c0.223,0.117,0.381,0.176,0.475,0.176c0.164,0,0.25-0.383,0.258-1.148c0.004-0.199,0.102-0.299,0.293-0.299
		c0.141,0,0.232,0.098,0.275,0.293c0.031,0.141,0.047,0.389,0.047,0.744c0,0.359-0.021,0.623-0.064,0.791
		c-0.094,0.34-0.305,0.51-0.633,0.51c-0.277,0-0.613-0.115-1.008-0.346c-0.605-0.352-1.18-0.836-1.723-1.453
		c-0.484,0.422-0.988,0.773-1.512,1.055c-0.145,0.078-0.262,0.117-0.352,0.117c-0.098,0-0.174-0.039-0.229-0.117
		c-0.043-0.059-0.064-0.119-0.064-0.182c0-0.074,0.021-0.132,0.062-0.173s0.177-0.142,0.407-0.302
		c0.391-0.266,0.795-0.602,1.213-1.008c-0.426-0.586-0.807-1.379-1.143-2.379l-3.439,0.223c0.004,0.152,0.006,0.268,0.006,0.346
		c0,0.203-0.006,0.416-0.018,0.639l2.027-0.158c0.051-0.004,0.107-0.006,0.17-0.006c0.449,0,0.674,0.219,0.674,0.656
		c0,0.238-0.047,0.549-0.141,0.932c-0.258,1.023-0.596,1.535-1.014,1.535c-0.234,0-0.533-0.082-0.896-0.246
		c-0.398-0.18-0.598-0.346-0.598-0.498c0-0.172,0.082-0.258,0.246-0.258c0.063,0,0.141,0.016,0.234,0.047
		c0.289,0.098,0.516,0.146,0.68,0.146c0.145,0,0.262-0.094,0.352-0.281c0.199-0.402,0.299-0.764,0.299-1.084
		c0-0.164-0.105-0.238-0.316-0.223l-1.781,0.135c-0.086,0.762-0.299,1.459-0.639,2.092c-0.336,0.633-0.607,0.949-0.814,0.949
		c-0.086,0-0.16-0.031-0.223-0.094c-0.07-0.07-0.105-0.143-0.105-0.217c0-0.078,0.061-0.219,0.182-0.422
		c0.535-0.895,0.803-2.08,0.803-3.557l-0.029-1.102c0-0.164,0.07-0.281,0.211-0.352c0.074-0.035,0.15-0.053,0.229-0.053
		C18.308,20.934,18.454,21.043,18.509,21.262z M19.083,29.178l1.236-0.047l-0.041-1.893l-1.295,0.082L19.083,29.178z M22.364,29.049
		l0.041-1.957l-1.342,0.094l0.047,1.916L22.364,29.049z M24.433,28.973l0.123-1.699c0.004-0.227-0.094-0.328-0.293-0.305h-0.018
		l-1.049,0.07l-0.041,1.98L24.433,28.973z M23.63,19.346c0.191,0,0.564,0.166,1.119,0.498c0.25,0.148,0.375,0.303,0.375,0.463
		c0,0.082-0.025,0.16-0.076,0.234c-0.082,0.113-0.193,0.17-0.334,0.17c-0.117,0-0.252-0.07-0.404-0.211
		c-0.258-0.234-0.508-0.438-0.75-0.609c-0.117-0.082-0.176-0.174-0.176-0.275C23.384,19.436,23.466,19.346,23.63,19.346z"/>
	<path d="M31.78,24.631c0.313-0.676,0.555-1.014,0.727-1.014c0.043,0,0.086,0.012,0.129,0.035c0.086,0.055,0.129,0.133,0.129,0.234
		c0,0.059-0.08,0.268-0.24,0.627c-0.195,0.441-0.322,0.74-0.381,0.896c-0.109,0.285-0.258,0.428-0.445,0.428
		c-0.191,0-0.348-0.109-0.469-0.328c-0.234-0.422-0.352-1.049-0.352-1.881c0-0.949,0.082-1.934,0.246-2.953
		c0.051-0.34,0.207-0.51,0.469-0.51c0.273,0,0.41,0.137,0.41,0.41c0,0.039-0.012,0.141-0.035,0.305
		c-0.168,1.148-0.252,2.098-0.252,2.848C31.716,24.029,31.737,24.33,31.78,24.631z M35.448,20.037c0.25,0,0.414,0.121,0.492,0.363
		c0.16,0.492,0.24,1.268,0.24,2.326c0,2.492-0.33,4.297-0.99,5.414c-0.316,0.539-0.73,0.992-1.242,1.359
		c-0.16,0.113-0.301,0.17-0.422,0.17c-0.09,0-0.164-0.033-0.223-0.1c-0.039-0.043-0.059-0.094-0.059-0.152
		c0-0.121,0.07-0.248,0.211-0.381c0.555-0.52,0.961-1.111,1.219-1.775c0.395-1.031,0.592-2.551,0.592-4.559
		c0-0.68-0.059-1.361-0.176-2.045c-0.016-0.082-0.023-0.15-0.023-0.205C35.067,20.176,35.194,20.037,35.448,20.037z"/>
	<path d="M46.095,20.26c0.285,0.34,0.705,0.758,1.26,1.254c1.191,1.066,2.365,1.896,3.521,2.49c0.309,0.156,0.463,0.283,0.463,0.381
		c0,0.07-0.076,0.125-0.229,0.164c-0.391,0.105-0.693,0.158-0.908,0.158c-0.133,0-0.252-0.037-0.357-0.111
		c-0.715-0.48-1.486-1.104-2.314-1.869c-0.699-0.648-1.301-1.275-1.805-1.881c-1.301,1.855-2.824,3.234-4.57,4.137
		c-0.148,0.078-0.262,0.117-0.34,0.117c-0.098,0-0.174-0.045-0.229-0.135c-0.031-0.055-0.047-0.109-0.047-0.164
		c0-0.09,0.043-0.17,0.129-0.24c0.02-0.02,0.158-0.113,0.416-0.281c1.027-0.688,1.951-1.488,2.771-2.402
		c0.602-0.672,1.086-1.346,1.453-2.021c0.117-0.215,0.258-0.322,0.422-0.322c0.07,0,0.141,0.016,0.211,0.047
		c0.16,0.066,0.24,0.186,0.24,0.357C46.183,20.035,46.153,20.143,46.095,20.26z M48.714,28.557c0.063,0,0.117,0.012,0.164,0.035
		c0.121,0.066,0.182,0.182,0.182,0.346c0,0.152-0.057,0.268-0.17,0.346c-0.055,0.039-0.121,0.061-0.199,0.064l-4.758,0.223
		l0.006,0.029c0.004,0.031,0.006,0.057,0.006,0.076c0,0.246-0.152,0.369-0.457,0.369c-0.242,0-0.385-0.148-0.428-0.445l-0.48-3.398
		c0-0.012,0-0.029,0-0.053c0-0.148,0.072-0.258,0.217-0.328c0.074-0.039,0.154-0.059,0.24-0.059c0.195,0,0.33,0.082,0.404,0.246
		l4.781-0.393c0.051-0.004,0.102-0.006,0.152-0.006c0.516,0,0.773,0.217,0.773,0.65c0,0.059-0.008,0.131-0.023,0.217L48.714,28.557z
		 M47.524,24.25l-3.633,0.299c-0.016,0-0.039,0-0.07,0c-0.27,0-0.404-0.131-0.404-0.393c0-0.227,0.129-0.352,0.387-0.375l3.65-0.328
		c0.02,0,0.039,0,0.059,0c0.273,0,0.41,0.139,0.41,0.416C47.923,24.1,47.79,24.227,47.524,24.25z M47.823,28.604l0.328-1.992
		c0-0.008,0-0.025,0-0.053c0-0.086-0.047-0.129-0.141-0.129c-0.012,0-0.025,0-0.041,0l-4.4,0.334l0.264,2.057L47.823,28.604z"/>
	<path d="M55.218,22.352c0.051-1.027,0.092-1.684,0.123-1.969c0.027-0.266,0.166-0.398,0.416-0.398c0.273,0,0.41,0.146,0.41,0.439
		c0,0.043-0.004,0.1-0.012,0.17c-0.031,0.367-0.061,0.838-0.088,1.412c0.078-0.023,0.145-0.035,0.199-0.035
		c0.148,0,0.273,0.051,0.375,0.152c0.113,0.109,0.17,0.244,0.17,0.404c0,0.074-0.025,0.161-0.076,0.261s-0.23,0.407-0.539,0.923
		l-0.152,0.258l-0.07,0.123c-0.008,0.066-0.016,0.193-0.023,0.381l-0.012,0.193v0.047c1.672-1.215,3.059-1.822,4.16-1.822
		c0.777,0,1.414,0.232,1.91,0.697c0.512,0.48,0.768,1.125,0.768,1.934c0,1.242-0.578,2.182-1.734,2.818
		c-0.328,0.184-0.697,0.332-1.107,0.445c-0.133,0.039-0.242,0.059-0.328,0.059c-0.203,0-0.305-0.088-0.305-0.264
		c0-0.148,0.123-0.27,0.369-0.363c0.594-0.227,1.066-0.52,1.418-0.879c0.516-0.535,0.773-1.141,0.773-1.816
		c0-0.543-0.186-0.986-0.557-1.33c-0.336-0.309-0.75-0.463-1.242-0.463c-1.039,0-2.42,0.641-4.143,1.922l-0.006,0.252
		c-0.031,1.848-0.045,2.859-0.041,3.035c0.004,0.156,0.006,0.25,0.006,0.281c0,0.383-0.137,0.574-0.41,0.574
		c-0.281,0-0.422-0.193-0.422-0.58c0-0.004,0-0.039,0-0.105c0.004-0.098,0.008-0.703,0.012-1.816
		c0.004-0.23,0.008-0.557,0.012-0.979c-0.406,0.344-0.869,0.744-1.389,1.201c-0.156,0.137-0.295,0.205-0.416,0.205
		c-0.117,0-0.215-0.045-0.293-0.135s-0.117-0.18-0.117-0.27c0-0.133,0.08-0.264,0.24-0.393c0.406-0.328,1.088-1.275,2.045-2.842
		c0-0.301,0.012-0.598,0.035-0.891c-1.082,0.391-1.676,0.586-1.781,0.586c-0.258,0-0.387-0.135-0.387-0.404
		c0-0.207,0.154-0.35,0.463-0.428C53.858,22.846,54.44,22.648,55.218,22.352z"/>
	<path d="M71.595,22.639c0.023-0.531,0.039-1.287,0.047-2.268c0.004-0.367,0.152-0.551,0.445-0.551c0.227,0,0.363,0.105,0.41,0.316
		c0.016,0.059,0.023,0.193,0.023,0.404c0,0.723-0.012,1.369-0.035,1.939c1.23-0.195,1.908-0.293,2.033-0.293
		c0.297,0,0.445,0.148,0.445,0.445c0,0.223-0.188,0.359-0.563,0.41c-0.418,0.055-1.074,0.152-1.969,0.293
		c-0.094,1.074-0.199,1.842-0.316,2.303c-0.066,0.258-0.182,0.463-0.346,0.615c-0.145,0.129-0.289,0.193-0.434,0.193
		c-0.141,0-0.271-0.084-0.393-0.252c-0.219-0.305-0.494-0.586-0.826-0.844c-0.117-0.094-0.176-0.189-0.176-0.287
		c0-0.164,0.08-0.246,0.24-0.246c0.137,0,0.484,0.176,1.043,0.527l0.07,0.041c0.105-0.367,0.189-1.004,0.252-1.91
		c-1.02,0.172-2.168,0.381-3.445,0.627l0.006,0.188c0.039,0.961,0.061,1.654,0.064,2.08c0.008,0.484,0.127,0.836,0.357,1.055
		c0.313,0.297,0.898,0.445,1.758,0.445c0.73,0,1.504-0.029,2.32-0.088c0.043-0.004,0.078-0.006,0.105-0.006
		c0.148,0,0.268,0.053,0.357,0.158c0.07,0.086,0.105,0.186,0.105,0.299c0,0.23-0.125,0.367-0.375,0.41
		c-0.285,0.047-1.076,0.07-2.373,0.07c-1.031,0-1.791-0.154-2.279-0.463c-0.43-0.273-0.693-0.658-0.791-1.154
		c-0.031-0.145-0.047-0.348-0.047-0.609c-0.004-0.418-0.029-1.084-0.076-1.998l-0.006-0.205c-0.852,0.188-1.523,0.34-2.016,0.457
		c-0.105,0.023-0.186,0.035-0.24,0.035c-0.281,0-0.422-0.143-0.422-0.428c0-0.23,0.189-0.383,0.568-0.457
		c0.113-0.02,0.535-0.105,1.266-0.258c0.172-0.035,0.439-0.092,0.803-0.17c-0.027-0.461-0.051-0.824-0.07-1.09
		c-0.027-0.457-0.045-0.752-0.053-0.885c-0.004-0.043-0.006-0.082-0.006-0.117c0-0.152,0.055-0.273,0.164-0.363
		c0.082-0.066,0.182-0.1,0.299-0.1c0.266,0,0.41,0.186,0.434,0.557c0.055,0.832,0.092,1.443,0.111,1.834
		c0.809-0.164,1.898-0.369,3.27-0.615L71.595,22.639z"/>
</g>
<g>
	<g>
		<path d="M12.264,17.739c-2.482,0.9-6.334,0.077-8.213-1.782c-1.044-1.033-0.547-2.693-0.18-3.892
			C4.532,9.901,5.935,8.442,8.4,9.235c0.102,0.033,0.272-0.008,0.342-0.091c0.45-0.545,0.771-1.139,1.125-1.751
			c1.872-3.238,4.33,1.216,4.726,2.214c1.158,2.917-0.502,6.576-3.228,7.907c-0.3,0.146-0.027,0.34,0.199,0.229
			c3.242-1.583,5.057-6.053,3.04-9.295c-0.615-0.989-1.928-2.838-3.4-2.413c-0.64,0.185-0.997,0.385-1.467,0.871
			c-1.036,1.072-0.88,1.961-2.648,1.612c-3.211-0.633-4.709,4.965-3.835,7.159c1.097,2.754,6.911,3.125,9.21,2.29
			C12.778,17.854,12.493,17.655,12.264,17.739L12.264,17.739z"/>
	</g>
</g>
<g>
	<g>
		<path d="M7.86,9.543C6.7,9.521,5.375,9.15,4.616,8.221C4.531,8.116,4.07,8.28,4.164,8.395c0.818,1.002,2.255,1.35,3.495,1.373
			C7.807,9.77,8.183,9.549,7.86,9.543L7.86,9.543z"/>
	</g>
</g>
<g>
	<g>
		<path d="M4.021,7.33c0.813,0.25,1.976,1.676,2.923,1.212c0.37-0.181,0.613-0.424,0.828-0.777c0.456-0.749,0.56-2.048,1.318-0.517
			c0.068,0.136,0.294,0.107,0.396,0.026c0.336-0.267,0.506-0.645,0.707-1.018c0.681-1.269,0.909-0.09,0.917,0.727
			c0.002,0.229,0.488,0.137,0.486-0.049c-0.005-0.607,0.003-1.656-0.782-1.717c-0.887-0.069-1.12,1.464-1.638,1.875
			C9.309,7.102,9.441,7.11,9.574,7.119c-0.245-0.493-0.918-1.683-1.541-0.83c-0.39,0.535-0.499,1.224-0.92,1.739
			C6.535,8.733,4.917,7.224,4.309,7.037C4.129,6.981,3.738,7.243,4.021,7.33L4.021,7.33z"/>
	</g>
</g>
<g>
	<g>
		<path d="M79.013,31.255c-0.093,4.323-5.993,4.525-7.896,7.715c-2.231,3.738,4.035,4.335,6.108,3.948
			c3.765-0.702,5.487-3.852,5.826-7.463c0.238-2.529-0.279-5.743-3.46-5.139c-0.306,0.058-0.211,0.386,0.088,0.329
			c3.504-0.666,3.038,4.075,2.733,6.085c-0.7,4.612-5.685,7.738-10.042,5.333c-2.812-1.552,0.118-4.271,1.652-5.18
			c0.936-0.555,1.894-1.062,2.81-1.649c1.468-0.942,2.631-2.205,2.669-4.017C79.507,30.966,79.017,31.039,79.013,31.255
			L79.013,31.255z"/>
	</g>
</g>
<g>
	<g>
		<path d="M80.064,30.417c-0.013-0.384-0.064-0.758-0.028-1.144c0.016-0.163,0.183-0.667,0.399-0.403
			c0.11,0.135,0.166,0.337,0.221,0.5c0.155,0.457,0.108,0.854,0.633,0.957c0.463,0.091,0.426,0.513-0.06,0.515
			c-0.185,0-0.431,0.085-0.551,0.233c-0.212,0.261-0.14,0.368-0.001,0.668c0.084,0.122,0.029,0.182-0.162,0.179
			c-0.074-0.104-0.131-0.215-0.171-0.335c-0.052-0.131-0.08-0.274-0.091-0.414c-0.012-0.158-0.444-0.013-0.481,0.099
			c-0.006,0.018-0.222,0.628-0.272,0.584c-0.133-0.114-0.184-0.338-0.229-0.497c-0.1-0.359-0.079-0.748,0.038-1.098
			c0.051-0.149-0.43-0.084-0.48,0.067c-0.152,0.452-0.22,1.522,0.317,1.786c0.612,0.301,0.96-0.467,1.106-0.909
			c-0.16,0.033-0.321,0.065-0.481,0.099c0.032,0.411,0.213,0.913,0.657,1.002c0.223,0.044,0.833-0.184,0.785-0.493
			c-0.01-0.062-0.29-0.725-0.125-0.711c0.215,0.019,0.375,0.032,0.582-0.052c0.274-0.111,0.65-0.584,0.34-0.835
			c-0.108-0.088-0.289-0.106-0.422-0.131c-0.302-0.057-0.307-0.348-0.378-0.602c-0.086-0.308-0.218-0.907-0.597-0.994
			c-1.201-0.273-1.055,1.378-1.032,2.06C79.586,30.682,80.07,30.591,80.064,30.417L80.064,30.417z"/>
	</g>
</g>
<g>
	<g>
		<g>
			<path d="M13.545,38.293c0.211,0,0.502-0.32,0.176-0.32C13.51,37.973,13.218,38.293,13.545,38.293L13.545,38.293z"/>
		</g>
	</g>
	<g>
		<g>
			<path d="M12.101,37.373c0.185,0,0.512-0.281,0.186-0.281C12.101,37.092,11.774,37.373,12.101,37.373L12.101,37.373z"/>
		</g>
	</g>
	<g>
		<g>
			<path d="M14.444,38.109c1.063-0.012,2.125-0.138,3.186-0.033c0.459,0.045,1.068,0.276,0.988,0.833
				c-0.073,0.519-0.764,0.67-1.178,0.688c-0.258,0.011-0.386,0.324-0.055,0.311c0.714-0.029,2.054-0.531,1.669-1.491
				c-0.186-0.462-0.82-0.592-1.248-0.652c-1.049-0.15-2.133,0.021-3.186,0.033C14.416,37.799,14.118,38.113,14.444,38.109
				L14.444,38.109z"/>
		</g>
	</g>
	<g>
		<g>
			<g>
				<path d="M9.071,32.257c0.857,1.876,2.161,3.352,3.726,4.68c0.826,0.701,1.75,1.25,2.624,1.884
					c0.36,0.26,0.626,0.611,0.953,0.907c0.141,0.204,0.281,0.408,0.422,0.612c0.375,0.676-0.061,0.994-1.306,0.955
					c-1.031-0.524-9.377-7.536-6.443-9.004c0.3-0.15,0.023-0.304-0.19-0.197c-3.684,1.844,5.286,8.944,6.66,9.643
					c1.3,0.661,2.505-0.706,1.548-1.896c-0.928-1.153-2.169-1.833-3.339-2.71c-1.768-1.324-3.251-2.987-4.172-5.003
					C9.478,31.961,9.005,32.112,9.071,32.257L9.071,32.257z"/>
			</g>
		</g>
		<g>
			<g>
				<path d="M10.474,35.728c0.152,0,0.523-0.23,0.199-0.23C10.521,35.497,10.149,35.728,10.474,35.728L10.474,35.728z"/>
			</g>
		</g>
		<g>
			<g>
				<path d="M11.264,37.114c-1.372-0.121-3.402-2.132-4.787-1.052c-1.846,1.439,4.396,3.056,5.078,3.091
					c0.162,0.008,0.521-0.226,0.196-0.242c-1.152-0.059-2.305-0.568-3.386-0.948c-0.452-0.159-0.875-0.383-1.254-0.676
					c-0.445-0.345-0.723-1.288,0.17-1.223c1.318,0.097,2.396,1.172,3.68,1.286C11.092,37.362,11.525,37.138,11.264,37.114
					L11.264,37.114z"/>
			</g>
		</g>
		<g>
			<g>
				<path d="M8.861,37.557c0.06,0,0.12,0,0.18,0c0.191,0,0.51-0.289,0.184-0.289c-0.06,0-0.12,0-0.18,0
					C8.854,37.268,8.535,37.557,8.861,37.557L8.861,37.557z"/>
			</g>
		</g>
	</g>
	<g>
		<g>
			<path d="M16.773,38.789c0.154,0,0.523-0.234,0.198-0.234C16.818,38.555,16.449,38.789,16.773,38.789L16.773,38.789z"/>
		</g>
	</g>
</g>
<g>
	<g>
		<g>
			<path d="M21.543,10.401c2.224-5.427,10.206-6.299,15.071-5.638c3.4,0.462,4.536,2.836,7.201,4.151
				c0.201,0.099,0.623,0.158,0.891,0.086c2.034-0.545-1.934-6.138,5.07-0.473c0.136,0.11,0.584-0.081,0.447-0.19
				c-1.438-1.163-3.031-1.759-4.732-0.706c-2.146,1.328-4.506-2.117-7.122-2.771c-5.54-1.385-14.806-0.508-17.309,5.599
				C20.994,10.62,21.477,10.563,21.543,10.401L21.543,10.401z"/>
		</g>
	</g>
	<g>
		<g>
			<path d="M50.514,8.324c3.857-2.16,10.992-2.95,14.291,0.338c0.093,0.092,0.279,0.031,0.374-0.022
				c0.733-0.414,1.696-1.248,2.579-0.293c0.116,0.125,0.576-0.052,0.449-0.189c-0.718-0.775-1.109-0.815-2.097-0.563
				c-0.259,0.065-0.496,0.26-0.683,0.436c-0.272,0.255-1.703-1.002-2.174-1.208c-3.662-1.598-9.682-0.524-13.041,1.357
				C49.929,8.338,50.355,8.412,50.514,8.324L50.514,8.324z"/>
		</g>
	</g>
</g>
<g>
	<g>
		<path d="M22.028,38.92c0.136,2.464,7.572,2.262,8.905,0.766c1.514-1.698,3.3,1.602,5.124,0.338c1.45-1.004,2.09-0.576,2.98,0.854
			c0.991,1.592,3.123,2.398,4.762,3.063c3.481,1.412,6.843-0.404,9.965-1.845c0.469-0.217,1.79-1.058,2.037-1.552
			c1.269-2.538,1.247-0.671,2.744-0.574c1.693,0.108,1.063,0.209,2.658-0.474c1.908-0.817,0.89-0.691,2.28,0.26
			c1.284,0.878,2.942,0.195,3.808-0.789c0.2-0.229-0.264-0.29-0.402-0.133c-1.435,1.634-3.221,0.662-4.05-0.411
			c-0.072-0.094-0.234-0.078-0.327-0.031c-1.96,0.981-3.679,0.917-5.493-0.527c-0.118-0.094-0.354-0.014-0.417,0.111
			c-2.175,4.348-7.713,6.784-12.521,5.649c-3.374-0.796-4.022-2.983-5.927-5.189c-0.083-0.097-0.223-0.069-0.327-0.031
			c-2.076,0.77-4.235,1.177-6.008-0.36c-0.099-0.086-0.315-0.022-0.388,0.069c-1.172,1.479-2.859,2.31-4.772,2.219
			c-0.978-0.046-4.067-0.093-4.143-1.452C22.503,38.632,22.017,38.715,22.028,38.92L22.028,38.92z"/>
	</g>
</g>
<g>
	<g>
		<path d="M7.992,21.071c-1.428,0.915-1.783,2.738-2.07,4.296c-0.437,2.364-0.061,3.771,1.775,5.437
			c0.145,0.131,0.601-0.061,0.445-0.202c-1.497-1.358-2.35-2.862-1.796-4.92c0.421-1.563,0.433-3.449,1.957-4.426
			C8.579,21.079,8.169,20.957,7.992,21.071L7.992,21.071z"/>
	</g>
</g>
<g>
	<g>
		<g>
			<path d="M73.137,15.071c-1.22-1.43-1.802-2.891-1.955-4.753c-0.069-0.843-0.064-1.7-0.107-2.546
				c-0.092-1.836,1.161-1.131,2.183-0.879c0.114,0.028,0.539-0.155,0.396-0.19c-1.351-0.333-2.699-1.242-3.05,0.704
				c-0.215,1.192,0.042,2.802,0.195,4c0.19,1.477,0.935,2.719,1.883,3.831C72.762,15.33,73.215,15.163,73.137,15.071L73.137,15.071z
				"/>
		</g>
	</g>
	<g>
		<g>
			<path d="M75.538,6.04c1.887-1.062,1.909,1.604,3.392,0.823c3.138-1.654,1.868,3.01,1.352,4.105
				c-0.523,1.111-0.901,2.291-2.056,2.945c-1.102,0.625-1.012-0.084-1.754,0.158c-0.885,0.289-1.78,0.899-2.674,0.211
				c-0.179-0.137-0.596,0.114-0.371,0.287c0.383,0.293,0.864,0.635,1.285,0.794c0.594,0.224,1.856-1.033,2.079-0.882
				c0.58,0.393,1.682-0.162,2.104-0.528c1.029-0.893,1.465-2.104,2.034-3.311c0.597-1.267,1.25-3.867-0.457-4.519
				C80.147,6,79.836,6.098,79.518,6.165C78.7,6.337,78.226,6.309,77.562,5.78c-0.789-0.627-1.411-0.507-2.242-0.04
				C75.034,5.901,75.293,6.178,75.538,6.04L75.538,6.04z"/>
		</g>
	</g>
	<g>
		<g>
			<path d="M73.218,8.479c-0.315,0.722-0.309,1.624-0.322,2.395c-0.009,0.519-0.108,1.921,0.512,2.18
				c0.128,0.053,0.485-0.146,0.457-0.158c-0.556-0.232-0.478-1.484-0.485-1.953c-0.015-0.806-0.015-1.802,0.313-2.554
				C73.718,8.329,73.269,8.362,73.218,8.479L73.218,8.479z"/>
		</g>
	</g>
	<g>
		<g>
			<path d="M76.301,8.861c-0.023,1.4-0.421,2.674-0.904,3.974c-0.031,0.085,0.431,0.036,0.477-0.086
				c0.489-1.317,0.887-2.603,0.91-4.018C76.785,8.657,76.303,8.722,76.301,8.861L76.301,8.861z"/>
		</g>
	</g>
	<g>
		<g>
			<path d="M75.211,4.32c0,0.242,0,0.484,0,0.727c0,0.058,0.111,0.071,0.147,0.071c0.061,0,0.121,0,0.183,0
				c0.179,0,0.515-0.272,0.188-0.272c-0.061,0-0.121,0-0.183,0c0.05,0.024,0.099,0.048,0.147,0.071c0-0.242,0-0.484,0-0.727
				C75.693,4.042,75.211,4.133,75.211,4.32L75.211,4.32z"/>
		</g>
	</g>
	<g>
		<g>
			<path d="M75.782,4.024c0.166-0.014,0.317-0.061,0.47-0.128c0.213-0.094,0.395-0.335,0.524-0.039
				c0.275,0.625-0.409,1.115-0.476,1.699c-0.022,0.193,0.464,0.102,0.482-0.061c0.08-0.708,0.865-1.222,0.368-1.966
				c-0.291-0.436-0.993,0.203-1.303,0.229C75.612,3.778,75.447,4.052,75.782,4.024L75.782,4.024z"/>
		</g>
	</g>
</g>
<g>
	<g>
		<path d="M80.96,16.193c1.714,0.343,2.935,1.739,3.828,3.152c1.134,1.793,1.166,3.518,0.853,5.54
			c-0.038,0.249,0.456,0.187,0.49-0.035c0.345-2.225,0.193-3.74-0.901-5.719c-0.853-1.541-2.35-2.944-4.104-3.295
			C80.884,15.787,80.639,16.129,80.96,16.193L80.96,16.193z"/>
	</g>
</g>
<g>
	<g>
		<path d="M67.896,5.725c-0.804,0.169-1.033-1.11-0.493-1.521c0.378-0.288,1.097,0.167,1.206,0.556
			c0.056,0.199-0.062,0.417-0.216,0.534c-0.229,0.174-0.473-0.082-0.6-0.254c-0.112-0.153-0.577,0.021-0.445,0.2
			c0.438,0.595,1.291,0.524,1.666-0.108c0.462-0.781-0.692-1.367-1.328-1.307c-1.524,0.146-1.313,2.52,0.286,2.183
			C68.272,5.945,68.191,5.663,67.896,5.725L67.896,5.725z"/>
	</g>
</g>
<g>
	<g>
		<path d="M71.596,2.799c-0.481-0.31-1.145-0.565-1.362-1.138c-0.241-0.632,0.77-1.518,1.36-1.212
			c0.861,0.445,1.026,1.892-0.046,2.145c-0.302,0.071-0.212,0.394,0.086,0.324c0.687-0.162,1.195-0.634,1.158-1.374
			c-0.032-0.651-0.48-1.285-1.103-1.491c-0.754-0.25-1.504,0.439-1.861,1.032c-0.574,0.954,0.787,1.598,1.395,1.989
			C71.397,3.187,71.824,2.946,71.596,2.799L71.596,2.799z"/>
	</g>
</g>
<g>
	<g>
		<path d="M20.996,5.333c0.29-0.268,0.407,0.233,0.442,0.451c0.053,0.33-0.021,0.744-0.263,0.987
			c-0.646,0.647-1.753-1.039-0.95-1.589c0.27-0.185-0.15-0.233-0.297-0.133c-0.589,0.403-0.558,1.088-0.176,1.639
			c0.396,0.571,1.156,0.578,1.702,0.234c0.5-0.314,0.574-1.061,0.389-1.571c-0.213-0.591-0.867-0.427-1.232-0.089
			C20.407,5.451,20.886,5.435,20.996,5.333L20.996,5.333z"/>
	</g>
</g>
<g>
	<g>
		<path d="M14.944,3.016c0.297,0.305,0.652,0.67,0.55,1.134c-0.106,0.48-0.84,0.714-1.247,0.835
			c-0.707,0.209-1.369-0.058-1.361-0.851c0.005-0.499,0.351-0.977,0.7-1.302c0.494-0.458,1.07-0.499,1.54,0.002
			c0.078,0.083,0.517-0.095,0.457-0.158c-1.109-1.182-3.258,0.349-3.176,1.741c0.063,1.065,1.324,0.857,2.011,0.654
			c0.436-0.129,0.997-0.319,1.313-0.662c0.522-0.565,0.119-1.091-0.33-1.552C15.321,2.775,14.885,2.955,14.944,3.016L14.944,3.016z"
			/>
	</g>
</g>
<g>
	<g>
		<path d="M4.758,33.049c0.508-0.037,0.6,0.316,0.335,0.688c-0.407,0.569-0.705-0.125-0.781-0.528
			c-0.033-0.171-0.518-0.051-0.483,0.129c0.075,0.391,0.223,0.83,0.665,0.908c0.328,0.058,0.662-0.111,0.899-0.325
			c0.214-0.192,0.387-0.493,0.337-0.788c-0.064-0.387-0.625-0.377-0.907-0.356C4.582,32.793,4.423,33.073,4.758,33.049L4.758,33.049
			z"/>
	</g>
</g>
<g>
	<g>
		<path d="M1.929,33.644c0.415,0.279,0.665,0.665,0.595,1.175c-0.074,0.546-0.597,0.85-1.109,0.799
			c-1.498-0.15-0.939-2.238,0.32-2.293c0.279-0.012,0.367-0.384,0.038-0.369c-0.783,0.033-1.449,0.552-1.699,1.292
			c-0.269,0.794,0.234,1.506,1.006,1.7c0.652,0.165,1.419-0.086,1.76-0.689c0.403-0.712,0.107-1.465-0.541-1.901
			C2.113,33.231,1.695,33.486,1.929,33.644L1.929,33.644z"/>
	</g>
</g>
<g>
	<g>
		<path d="M85.173,31.188c0.365,0.219,0.681,0.56,0.426,0.986c-0.318,0.534-0.627-0.128-0.639-0.452
			c-0.003-0.092-0.487-0.012-0.482,0.129c0.026,0.741,0.625,0.867,1.215,0.576c0.713-0.352,0.528-1.051-0.064-1.406
			C85.506,30.948,85.102,31.145,85.173,31.188L85.173,31.188z"/>
	</g>
</g>
<g>
	<g>
		<path d="M85.631,28.456c-0.65-0.477-0.543-1.651,0.35-1.774c0.519-0.072,0.708,0.487,0.789,0.905
			c0.145,0.753-0.777,0.673-1.24,0.664c-0.228-0.004-0.496,0.337-0.17,0.344c0.741,0.014,1.429,0.067,1.849-0.658
			c0.304-0.525-0.238-1.473-0.778-1.585c-1.37-0.285-2.354,1.511-1.172,2.379C85.426,28.854,85.852,28.618,85.631,28.456
			L85.631,28.456z"/>
	</g>
</g>
</svg>
