<?xml version="1.0" encoding="utf-8"?>
<!-- Generator: Adobe Illustrator 15.1.0, SVG Export Plug-In . SVG Version: 6.00 Build 0)  -->
<!DOCTYPE svg PUBLIC "-//W3C//DTD SVG 1.1//EN" "http://www.w3.org/Graphics/SVG/1.1/DTD/svg11.dtd">
<svg version="1.1" id="レイヤー_1" xmlns="http://www.w3.org/2000/svg" xmlns:xlink="http://www.w3.org/1999/xlink" x="0px"
	 y="0px" width="65.224px" height="28.699px" viewBox="0 0 65.224 28.699" style="enable-background:new 0 0 65.224 28.699;"
	 xml:space="preserve">
<g>
	<path d="M9.911,15.05l5.549-0.41c0.055-0.004,0.105-0.006,0.152-0.006c0.371,0,0.641,0.098,0.809,0.293
		c0.094,0.109,0.162,0.254,0.205,0.434c0.031,0.133,0.047,0.398,0.047,0.797c0,2.18-0.143,4.004-0.428,5.473
		c-0.152,0.777-0.332,1.316-0.539,1.617c-0.176,0.262-0.434,0.393-0.773,0.393c-0.477,0-1.135-0.125-1.975-0.375
		c-0.148-0.043-0.262-0.08-0.34-0.111c-0.176-0.074-0.264-0.182-0.264-0.322c0-0.227,0.111-0.34,0.334-0.34
		c0.07,0,0.199,0.021,0.387,0.064c0.504,0.113,0.982,0.17,1.436,0.17c0.277,0,0.471-0.121,0.58-0.363
		c0.102-0.238,0.201-0.617,0.299-1.137c0.254-1.398,0.381-3.073,0.381-5.022c0-0.371-0.072-0.598-0.217-0.68
		c-0.074-0.039-0.178-0.059-0.311-0.059c-0.02,0-0.041,0-0.064,0L9.43,15.87c-0.426,0.652-0.877,1.215-1.354,1.688
		c-0.113,0.113-0.223,0.17-0.328,0.17c-0.082,0-0.156-0.033-0.223-0.1c-0.078-0.074-0.117-0.154-0.117-0.24
		c0-0.094,0.092-0.252,0.275-0.475c0.785-0.965,1.414-2.033,1.887-3.205c0.109-0.27,0.262-0.404,0.457-0.404
		c0.078,0,0.158,0.023,0.24,0.07c0.129,0.078,0.193,0.184,0.193,0.316C10.461,13.874,10.278,14.327,9.911,15.05z M10.145,16.849
		l2.566-0.205h0.117c0.387,0.063,0.621,0.275,0.703,0.639l0.006,0.117l-0.07,4.055c-0.004,0.094-0.043,0.172-0.117,0.234
		s-0.164,0.094-0.27,0.094c-0.164,0-0.287-0.063-0.369-0.188c-0.027-0.043-0.041-0.09-0.041-0.141l0.006-0.223l-2.455,0.129
		l0.006,0.229c0,0.055-0.018,0.107-0.053,0.158c-0.07,0.109-0.189,0.164-0.357,0.164c-0.254,0-0.383-0.107-0.387-0.322l-0.059-4.594
		c-0.004-0.273,0.125-0.41,0.387-0.41C9.969,16.585,10.098,16.673,10.145,16.849z M10.174,17.593l0.012,1.078l2.514-0.158
		l0.012-0.932l-0.006-0.041c-0.023-0.063-0.07-0.105-0.141-0.129H12.53L10.174,17.593z M12.682,20.476l0.012-1.213l-2.496,0.152
		l0.012,1.201L12.682,20.476z"/>
	<path d="M24.366,15.747c0.086,0.18,0.129,0.445,0.129,0.797c0,1.168-0.457,2.479-1.371,3.932c-0.68,1.078-1.316,1.617-1.91,1.617
		c-0.418,0-0.789-0.213-1.113-0.639c-0.414-0.539-0.621-1.242-0.621-2.109c0-0.903,0.348-1.745,1.043-2.526
		c0.547-0.617,1.225-1.088,2.033-1.412c0.73-0.297,1.488-0.445,2.273-0.445c1.102,0,2.016,0.332,2.742,0.996
		c0.781,0.711,1.172,1.627,1.172,2.748c0,1.016-0.318,1.901-0.955,2.655c-0.48,0.57-1.09,1.004-1.828,1.301
		c-0.125,0.051-0.234,0.076-0.328,0.076c-0.121,0-0.211-0.041-0.27-0.123c-0.043-0.059-0.064-0.117-0.064-0.176
		c0-0.086,0.039-0.168,0.117-0.246c0.039-0.035,0.195-0.131,0.469-0.287c0.43-0.238,0.811-0.574,1.143-1.008
		c0.504-0.652,0.756-1.377,0.756-2.174c0-0.934-0.334-1.691-1.002-2.273c-0.555-0.48-1.199-0.721-1.934-0.721l-0.445,0.018h-0.012
		h-0.012H24.366z M23.569,15.888c-1.16,0.32-2.043,0.908-2.648,1.764c-0.387,0.547-0.58,1.105-0.58,1.676
		c0,0.621,0.133,1.135,0.398,1.541c0.168,0.258,0.33,0.387,0.486,0.387c0.285,0,0.637-0.32,1.055-0.961
		c0.426-0.652,0.768-1.362,1.025-2.127c0.199-0.602,0.299-1.143,0.299-1.623C23.604,16.411,23.592,16.192,23.569,15.888z"/>
	<path d="M35.153,18.396l-1.078,0.117v1.149l1.535-0.223c0.02,0,0.041,0,0.064,0c0.238,0.016,0.357,0.133,0.357,0.352
		c0,0.199-0.113,0.314-0.34,0.346l-1.617,0.234v1.307c0.617-0.152,1.143-0.297,1.576-0.434c0.305-0.094,0.498-0.141,0.58-0.141
		c0.19,0,0.287,0.111,0.287,0.334c0,0.125-0.076,0.225-0.229,0.299c-0.32,0.16-1.102,0.41-2.344,0.75
		c-0.508,0.141-1.061,0.281-1.658,0.422s-0.939,0.211-1.025,0.211c-0.262,0-0.393-0.145-0.393-0.434
		c0-0.184,0.082-0.309,0.246-0.375c0.059-0.02,0.232-0.055,0.521-0.105c0.352-0.063,0.9-0.176,1.646-0.34v-1.383L31.69,20.71
		c-0.039,0.008-0.068,0.012-0.088,0.012c-0.113,0.004-0.203-0.041-0.27-0.135c-0.043-0.059-0.064-0.129-0.064-0.211
		c0-0.207,0.111-0.326,0.334-0.357l1.682-0.246v-1.172l-1.031,0.117c-0.027,0.203-0.156,0.305-0.387,0.305
		c-0.223,0-0.342-0.125-0.357-0.375l-0.264-4.248c0-0.078,0.02-0.145,0.059-0.199c0.074-0.098,0.182-0.146,0.322-0.146
		c0.168,0,0.285,0.068,0.352,0.205l3.299-0.398c0.066-0.008,0.131-0.012,0.193-0.012c0.465,0,0.697,0.229,0.697,0.686
		c0,0.023-0.002,0.055-0.006,0.094l-0.24,3.709c-0.02,0.23-0.152,0.346-0.398,0.346C35.304,18.683,35.181,18.587,35.153,18.396z
		 M33.284,15.97v-1.154l-1.242,0.158l0.064,1.125L33.284,15.97z M33.284,17.88v-1.236l-1.137,0.123l0.07,1.23L33.284,17.88z
		 M35.312,15.759l0.059-0.926c0-0.172-0.074-0.258-0.223-0.258c-0.012,0-0.029,0.002-0.053,0.006l-1.02,0.129v1.178L35.312,15.759z
		 M35.194,17.669l0.076-1.236l-1.195,0.129v1.23L35.194,17.669z M39.103,16.356c0.094,0.07,0.188,0.146,0.287,0.229
		c0.12,0.102,0.182,0.225,0.182,0.369c0,0.09-0.028,0.172-0.082,0.246l1.33-0.135c0.065-0.008,0.12-0.012,0.164-0.012
		c0.352,0,0.527,0.135,0.527,0.404c0,0.289-0.216,0.814-0.645,1.577c-0.152,0.27-0.274,0.461-0.363,0.574
		c-0.099,0.129-0.199,0.193-0.305,0.193c-0.059,0-0.123-0.021-0.193-0.064c-0.094-0.059-0.141-0.145-0.141-0.258
		c0-0.07,0.038-0.178,0.117-0.322c0.117-0.223,0.261-0.586,0.434-1.09c0.023-0.063,0.035-0.105,0.035-0.129
		c0-0.066-0.05-0.094-0.146-0.082l-3.539,0.434c-0.044,0.004-0.082,0.006-0.117,0.006c-0.231,0-0.346-0.139-0.346-0.416
		c0-0.23,0.12-0.357,0.363-0.381l2.215-0.234c-0.023-0.016-0.05-0.039-0.076-0.07c-0.403-0.391-0.825-0.742-1.266-1.055
		c-0.129-0.094-0.193-0.189-0.193-0.287c0-0.059,0.021-0.119,0.064-0.182c0.054-0.082,0.129-0.123,0.223-0.123
		c0.082,0,0.194,0.037,0.34,0.111c0.229,0.109,0.422,0.213,0.574,0.311c0.405-0.363,0.745-0.721,1.02-1.072
		c0.073-0.094,0.111-0.164,0.111-0.211c0-0.059-0.046-0.088-0.135-0.088c-0.009,0-0.032,0.002-0.07,0.006l-2.52,0.264
		c-0.035,0.004-0.067,0.006-0.094,0.006c-0.267,0-0.398-0.123-0.398-0.369c0-0.238,0.117-0.369,0.352-0.393l3.393-0.334
		c0.026-0.004,0.053-0.006,0.076-0.006c0.19,0,0.347,0.055,0.469,0.164c0.101,0.086,0.152,0.189,0.152,0.311
		c0,0.137-0.082,0.307-0.246,0.51C40.123,15.413,39.606,15.946,39.103,16.356z M39.208,18.747v4.366
		c0,0.551-0.214,0.826-0.639,0.826c-0.231,0-0.621-0.109-1.172-0.328c-0.231-0.09-0.419-0.174-0.563-0.252
		c-0.141-0.078-0.211-0.176-0.211-0.293c0-0.184,0.089-0.275,0.27-0.275c0.073,0,0.185,0.023,0.334,0.07
		c0.352,0.105,0.642,0.158,0.873,0.158c0.164,0,0.246-0.092,0.246-0.275v-3.997c0-0.125,0.044-0.225,0.135-0.299
		c0.085-0.066,0.183-0.1,0.293-0.1c0.147,0,0.265,0.051,0.352,0.152C39.18,18.567,39.208,18.649,39.208,18.747z"/>
	<path d="M49.099,20.593c0.684,0.469,1.479,0.912,2.385,1.33c0.602,0.277,1.182,0.498,1.74,0.662
		c0.367,0.109,0.551,0.213,0.551,0.311c0,0.066-0.078,0.131-0.234,0.193c-0.363,0.148-0.641,0.223-0.832,0.223
		c-0.25,0-0.771-0.221-1.564-0.662c-0.813-0.449-1.627-0.996-2.443-1.641v2.584c0,0.09-0.023,0.166-0.07,0.229
		c-0.09,0.113-0.211,0.17-0.363,0.17c-0.172,0-0.297-0.064-0.375-0.193c-0.035-0.063-0.053-0.131-0.053-0.205v-2.432
		c-0.93,0.781-1.998,1.426-3.205,1.934c-0.578,0.242-0.947,0.363-1.107,0.363c-0.195,0-0.293-0.105-0.293-0.316
		c0-0.094,0.041-0.172,0.123-0.234c0.039-0.027,0.188-0.088,0.445-0.182c0.828-0.297,1.744-0.801,2.748-1.512
		c0.223-0.156,0.449-0.328,0.68-0.516l-3.445,0.205c-0.094,0.008-0.18-0.012-0.258-0.059c-0.102-0.063-0.152-0.162-0.152-0.299
		c0-0.227,0.117-0.348,0.352-0.363l4.113-0.252v-0.516c0-0.121,0.045-0.217,0.135-0.287c0.082-0.063,0.18-0.094,0.293-0.094
		c0.117,0,0.219,0.033,0.305,0.1s0.129,0.156,0.129,0.27v0.475l4.178-0.258c0.262,0,0.393,0.121,0.393,0.363
		s-0.115,0.369-0.346,0.381L49.099,20.593z M50.083,14.909l-0.064,0.416c-0.035,0.258-0.164,0.387-0.387,0.387
		c-0.238,0-0.361-0.133-0.369-0.398l0.023-0.357l-2.32,0.123l0.053,0.51c0.004,0.023,0.006,0.047,0.006,0.07
		c0,0.234-0.123,0.352-0.369,0.352c-0.254,0-0.4-0.125-0.439-0.375l-0.076-0.51l-2.338,0.129c-0.027,0-0.043,0-0.047,0
		c-0.117,0-0.211-0.043-0.281-0.129c-0.051-0.063-0.076-0.141-0.076-0.234c0-0.227,0.111-0.346,0.334-0.357l2.297-0.129
		l-0.111-0.715c-0.004-0.023-0.006-0.049-0.006-0.076c0-0.16,0.07-0.277,0.211-0.352c0.074-0.035,0.152-0.053,0.234-0.053
		c0.27,0,0.418,0.137,0.445,0.41l0.082,0.738l2.449-0.129l0.053-0.715c0.02-0.281,0.166-0.422,0.439-0.422
		c0.109,0,0.205,0.027,0.287,0.082c0.109,0.078,0.164,0.188,0.164,0.328c0,0.035-0.002,0.063-0.006,0.082l-0.082,0.598l2.35-0.129
		c0.082,0,0.15,0.014,0.205,0.041c0.137,0.066,0.205,0.176,0.205,0.328c0,0.223-0.111,0.34-0.334,0.352L50.083,14.909z
		 M44.938,17.599c0.148,0,0.393,0.191,0.732,0.574c0.332,0.375,0.498,0.646,0.498,0.814c0,0.129-0.055,0.237-0.164,0.323
		c-0.082,0.063-0.174,0.094-0.275,0.094c-0.188,0-0.34-0.117-0.457-0.352c-0.223-0.434-0.404-0.76-0.545-0.979
		c-0.051-0.082-0.076-0.156-0.076-0.223c0-0.082,0.041-0.15,0.123-0.205C44.825,17.614,44.88,17.599,44.938,17.599z M50.165,15.659
		c0.176,0,0.299,0.066,0.369,0.199c0.031,0.055,0.047,0.115,0.047,0.182c0,0.199-0.117,0.338-0.352,0.416
		c-0.508,0.168-1.363,0.357-2.566,0.568c-1.004,0.176-1.605,0.264-1.805,0.264c-0.227,0-0.34-0.117-0.34-0.352
		c0-0.133,0.074-0.225,0.223-0.275c0.031-0.012,0.166-0.035,0.404-0.07c1.02-0.145,2.197-0.418,3.533-0.82
		C49.921,15.696,50.083,15.659,50.165,15.659z M47.687,17.13c0.176,0,0.408,0.176,0.697,0.527c0.32,0.398,0.48,0.688,0.48,0.867
		c0,0.121-0.049,0.221-0.146,0.299c-0.078,0.063-0.172,0.094-0.281,0.094c-0.191,0-0.338-0.123-0.439-0.369
		c-0.16-0.375-0.322-0.674-0.486-0.896c-0.066-0.094-0.1-0.178-0.1-0.252s0.029-0.137,0.088-0.188
		C47.558,17.157,47.62,17.13,47.687,17.13z M51.589,16.778c0.074,0,0.15,0.02,0.229,0.059c0.164,0.078,0.246,0.205,0.246,0.381
		c0,0.223-0.324,0.732-0.973,1.529c-0.277,0.34-0.49,0.51-0.639,0.51c-0.043,0-0.094-0.018-0.152-0.053
		c-0.082-0.051-0.123-0.129-0.123-0.235c0-0.078,0.045-0.182,0.135-0.311c0.336-0.504,0.627-1.023,0.873-1.559
		C51.282,16.886,51.417,16.778,51.589,16.778z"/>
</g>
<g>
	<g>
		<path d="M3.445,11.163c0.228,0.691,0.763,1.174,1.226,1.715c0.596,0.696,0.992,1.5,1.521,2.244
			c0.125,0.176,0.586-0.009,0.442-0.211c-0.433-0.61-0.754-1.291-1.214-1.881c-0.503-0.646-1.228-1.198-1.491-1.997
			C3.856,10.814,3.375,10.948,3.445,11.163L3.445,11.163z"/>
	</g>
</g>
<g>
	<g>
		<path d="M4.899,13.532c-1.197-0.519-2.385-1.074-3.323-2.005c-0.982-0.975-1.182-3.088-1.055-4.375
			c0.021-0.208-0.467-0.119-0.484,0.056c-0.137,1.394,0.096,3.07,0.878,4.256c0.765,1.16,2.389,1.786,3.603,2.311
			C4.671,13.841,5.11,13.623,4.899,13.532L4.899,13.532z"/>
	</g>
</g>
<g>
	<g>
		<path d="M0.946,5.107c1.142,0.983,2.25,1.989,3.226,3.14c0.568,0.669,1.103,1.199,0.646,2.14c-0.31,0.639-0.531,1.267-0.994,1.829
			c0.141-0.011,0.283-0.021,0.424-0.033c-0.533-1.038-0.623-2.233-0.831-3.364C3.374,8.587,2.89,8.712,2.934,8.948
			c0.216,1.17,0.322,2.378,0.873,3.45c0.076,0.148,0.346,0.062,0.424-0.033c0.651-0.793,1.62-2.254,1.149-3.289
			C4.623,7.417,2.667,5.985,1.317,4.823C1.148,4.678,0.731,4.922,0.946,5.107L0.946,5.107z"/>
	</g>
</g>
<g>
	<g>
		<path d="M1.23,8.607c0.403,0.891,1.373,1.278,1.894,2.083c0.11,0.17,0.574-0.005,0.444-0.206c-0.501-0.774-1.47-1.156-1.854-2.006
			C1.622,8.276,1.145,8.419,1.23,8.607L1.23,8.607z"/>
	</g>
</g>
<g>
	<g>
		<path d="M4.373,28.618c3.688-3.827,10.867-3.579,15.789-3.926c5.177-0.363,10.022,0.787,15.101,1.522
			c7.381,1.068,16.085,3.275,23.188,0.083c0.305-0.137,0.029-0.343-0.201-0.238c-5.824,2.617-13.557,1.305-19.706,0.347
			c-4.851-0.755-9.791-2.004-14.712-2.132c-5.71-0.147-15.515-0.267-19.853,4.234C3.773,28.721,4.244,28.751,4.373,28.618
			L4.373,28.618z"/>
	</g>
</g>
<g>
	<g>
		<path d="M47.18,9.973c0.445-3.294,7.111-2.881,8.926-1.79c2.554,1.536,2.492,5.649,0.681,7.709
			c-0.199,0.227,0.265,0.282,0.4,0.128c2.51-2.854,1.521-7.203-1.863-8.706c-2.104-0.935-8.229-0.278-8.632,2.701
			C46.66,10.25,47.151,10.178,47.18,9.973L47.18,9.973z"/>
	</g>
</g>
<g>
	<g>
		<path d="M57.858,6.102c0.627-0.458,1.306-0.816,1.999-1.163c0.289-0.145-0.151-0.181-0.291-0.111
			c-0.726,0.363-1.433,0.742-2.089,1.222C57.266,6.205,57.752,6.18,57.858,6.102L57.858,6.102z"/>
	</g>
</g>
<g>
	<g>
		<path d="M60.147,9.069c0.762-0.314,1.525-0.781,2.366-0.814c0.176-0.006,0.514-0.283,0.189-0.271
			c-0.993,0.038-1.846,0.519-2.745,0.889C59.646,9.003,59.932,9.158,60.147,9.069L60.147,9.069z"/>
	</g>
</g>
<g>
	<g>
		<path d="M61.742,10.941c0.406-0.232,0.854-0.118,1.289-0.105c0.215,0.006,0.503-0.313,0.176-0.322
			c-0.652-0.019-1.189-0.1-1.777,0.236C61.146,10.912,61.559,11.046,61.742,10.941L61.742,10.941z"/>
	</g>
</g>
<g>
	<g>
		<path d="M53.849,2.733c0.301,0.711,0.022,1.441-0.001,2.176c-0.008,0.221,0.479,0.129,0.484-0.052
			c0.025-0.76,0.312-1.518-0.001-2.254C54.252,2.417,53.775,2.562,53.849,2.733L53.849,2.733z"/>
	</g>
</g>
<g>
	<g>
		<path d="M49.43,2.639c-0.391,0.711,0.132,1.743,0.521,2.351c0.12,0.188,0.579,0.001,0.441-0.214
			c-0.329-0.515-0.834-1.472-0.5-2.079C50.024,2.457,49.534,2.45,49.43,2.639L49.43,2.639z"/>
	</g>
</g>
<g>
	<g>
		<path d="M44.665,4.804c0.479,0.353,0.71,0.875,1.022,1.363c0.078,0.121,0.548-0.03,0.451-0.182
			c-0.314-0.492-0.541-1.007-1.022-1.363C44.987,4.527,44.55,4.718,44.665,4.804L44.665,4.804z"/>
	</g>
</g>
<g>
	<g>
		<path d="M43.092,7.911c0.455,0.03,0.76,0.341,1.063,0.643c0.115,0.115,0.571-0.064,0.449-0.186
			c-0.392-0.389-0.756-0.682-1.321-0.72C43.107,7.636,42.767,7.889,43.092,7.911L43.092,7.911z"/>
	</g>
</g>
<g>
	<g>
		<path d="M61.119,14.074c0.509-0.116,1.082,0.394,1.473,0.657c0.174,0.117,0.6-0.123,0.373-0.275
			c-0.575-0.387-1.201-0.874-1.934-0.706C60.729,13.819,60.82,14.143,61.119,14.074L61.119,14.074z"/>
	</g>
</g>
<g>
	<g>
		<path d="M60.933,15.596c0.474,0.191,0.77,0.617,1.112,0.973c0.139,0.144,0.598-0.044,0.445-0.203
			c-0.397-0.413-0.727-0.851-1.272-1.071C61.035,15.221,60.654,15.483,60.933,15.596L60.933,15.596z"/>
	</g>
</g>
<g>
	<g>
		<path d="M43.814,3.441c0.113,0.114,0.227,0.227,0.341,0.34c0.111,0.112,0.566-0.066,0.449-0.183
			c-0.113-0.114-0.227-0.227-0.341-0.34C44.152,3.147,43.697,3.325,43.814,3.441L43.814,3.441z"/>
	</g>
</g>
<g>
	<g>
		<path d="M49.126,1.073c0.091,0.026,0.243,0.24,0.31,0.323c0.092,0.113,0.555-0.051,0.451-0.18
			c-0.132-0.163-0.172-0.301-0.372-0.359C49.383,0.819,48.948,1.021,49.126,1.073L49.126,1.073z"/>
	</g>
</g>
<g>
	<g>
		<path d="M40.729,6.776c0,0.057,0,0.113,0,0.17c0,0.251,0.488,0.175,0.488-0.038c0-0.057,0-0.113,0-0.17
			C41.217,6.487,40.729,6.563,40.729,6.776L40.729,6.776z"/>
	</g>
</g>
<g>
	<g>
		<path d="M54.189,0.178c0.035,0.135,0.134,0.202,0.171,0.341c0.031,0.121,0.515-0.008,0.482-0.13
			c-0.035-0.135-0.134-0.202-0.171-0.341C54.641-0.072,54.157,0.057,54.189,0.178L54.189,0.178z"/>
	</g>
</g>
<g>
	<g>
		<path d="M60.982,4.855c0.188,0,0.512-0.284,0.186-0.284C60.98,4.571,60.656,4.855,60.982,4.855L60.982,4.855z"/>
	</g>
</g>
<g>
	<g>
		<path d="M64.219,8.263c0.188,0,0.512-0.286,0.186-0.286C64.216,7.977,63.893,8.263,64.219,8.263L64.219,8.263z"/>
	</g>
</g>
<g>
	<g>
		<path d="M64.473,10.448c0.149-0.109,0.33-0.102,0.5-0.104c0.278-0.002,0.369-0.363,0.041-0.36
			c-0.318,0.002-0.603,0.046-0.863,0.237C63.886,10.415,64.277,10.591,64.473,10.448L64.473,10.448z"/>
	</g>
</g>
<g>
	<g>
		<path d="M63.656,15.078c0.104,0.014,0.19,0.056,0.263,0.126c0.14,0.127,0.595-0.063,0.445-0.198
			c-0.127-0.115-0.253-0.18-0.419-0.215C63.771,14.753,63.373,15.018,63.656,15.078L63.656,15.078z"/>
	</g>
</g>
<g>
	<g>
		<path d="M62.963,17.077c0.085,0.045,0.17,0.091,0.256,0.137c0.033,0.111,0.514-0.024,0.482-0.13
			c-0.061-0.207-0.232-0.2-0.426-0.204C63.174,16.877,62.724,17.072,62.963,17.077L62.963,17.077z"/>
	</g>
</g>
</svg>
