<?xml version="1.0" encoding="utf-8"?>
<!-- Generator: Adobe Illustrator 15.1.0, SVG Export Plug-In . SVG Version: 6.00 Build 0)  -->
<!DOCTYPE svg PUBLIC "-//W3C//DTD SVG 1.1//EN" "http://www.w3.org/Graphics/SVG/1.1/DTD/svg11.dtd">
<svg version="1.1" id="レイヤー_1" xmlns="http://www.w3.org/2000/svg" xmlns:xlink="http://www.w3.org/1999/xlink" x="0px"
	 y="0px" width="75.435px" height="49.867px" viewBox="0 0 75.435 49.867" style="enable-background:new 0 0 75.435 49.867;"
	 xml:space="preserve">
<g>
	<g>
		<path d="M26.173,46.852c-6.004-0.764-14.155-2.299-18.687-6.547c-5.13-4.809-5.182-14.775-0.603-19.635
			c7.021-7.45,18.238-8.762,27.9-8.085c8.639,0.605,18.76,0.948,26.949,3.997c5.855,2.181,11.752,8.288,13.04,14.377
			c0.694,3.277-0.391,6.966-1.777,9.92c-2.537,5.401-13.98,4.84-19.266,4.946c-3.934,0.079-7.865,0.219-11.799,0.289
			c-2.369,0.043-5.202-0.404-7.535,0.155c-0.788,0.189-1.964,0.366-2.568,1.019c-1.146,1.238-0.793,0.635-1.334,1.869
			c-0.136,0.311-2.698-1.741-2.759-1.783c-0.11-0.077-0.52,0.118-0.455,0.162c1.036,0.72,1.571,2.107,2.824,2.326
			c0.124,0.021,0.363-0.021,0.437-0.136c3.181-4.862,13.749-3.459,18.921-3.597c4.36-0.116,8.683-0.331,13.034-0.625
			c4.117-0.277,8.672-0.979,10.975-4.713c4.114-6.67,1.222-13.943-3.685-19.041c-6.83-7.099-16.317-7.392-25.532-8.481
			c-13.413-1.586-27.184-2.228-37.807,7.439C1.493,25.218,2.619,32.903,5.418,38.3c3.267,6.297,14.168,7.949,20.357,8.735
			C25.889,47.05,26.299,46.867,26.173,46.852L26.173,46.852z"/>
	</g>
</g>
<g>
	<g>
		<path d="M1.929,14.509c1.357,0.689,2.646,1.49,3.888,2.369c0.123,0.087,0.551-0.105,0.452-0.175
			c-1.26-0.892-2.571-1.702-3.948-2.401C2.204,14.242,1.757,14.422,1.929,14.509L1.929,14.509z"/>
	</g>
</g>
<g>
	<g>
		<path d="M7.334,9.359c0.255,0.889,0.594,1.755,0.871,2.638c0.246,0.785,0.529,1.501,1.021,2.164
			c0.106,0.143,0.572-0.026,0.447-0.194c-0.481-0.649-0.745-1.338-0.985-2.099c-0.278-0.883-0.616-1.75-0.871-2.639
			C7.765,9.047,7.283,9.179,7.334,9.359L7.334,9.359z"/>
	</g>
</g>
<g>
	<g>
		<path d="M14.487,8.633c0,0.625,0,1.249,0,1.874c0,0.247,0.488,0.168,0.488-0.04c0-0.625,0-1.249,0-1.874
			C14.975,8.346,14.487,8.425,14.487,8.633L14.487,8.633z"/>
	</g>
</g>
<g>
	<g>
		<path d="M14.489,6.429c0,0.17,0,0.341,0,0.511c0,0.203,0.483,0.099,0.483-0.061c0-0.17,0-0.341,0-0.511
			C14.973,6.165,14.489,6.27,14.489,6.429L14.489,6.429z"/>
	</g>
</g>
<g>
	<g>
		<path d="M6.653,7.485c0,0.17,0,0.341,0,0.511c0,0.129,0.483,0.043,0.483-0.13c0-0.17,0-0.341,0-0.511
			C7.136,7.227,6.653,7.312,6.653,7.485L6.653,7.485z"/>
	</g>
</g>
<g>
	<g>
		<path d="M0.027,13.311c0.17,0.17,0.341,0.34,0.511,0.511c0.13,0.13,0.589-0.054,0.446-0.196c-0.17-0.17-0.341-0.34-0.511-0.511
			C0.343,12.984-0.115,13.169,0.027,13.311L0.027,13.311z"/>
	</g>
</g>
<g>
	<path d="M14.981,33.998c0.281,0.09,0.6,0.172,0.955,0.246c1.281,0.277,2.49,0.455,3.627,0.533c0.285,0.016,0.428,0.059,0.428,0.129
		c0,0.039-0.041,0.096-0.123,0.17c-0.453,0.387-0.854,0.58-1.201,0.58c-0.289,0-0.826-0.092-1.611-0.275
		c-1.039-0.246-1.932-0.512-2.678-0.797c-0.777-0.301-1.648-0.686-2.613-1.154c-0.379,0.637-0.832,1.217-1.359,1.74
		c-0.133,0.133-0.25,0.199-0.352,0.199c-0.055,0-0.115-0.023-0.182-0.07c-0.09-0.059-0.135-0.139-0.135-0.24
		c0-0.082,0.098-0.236,0.293-0.463c0.82-0.945,1.41-2.107,1.77-3.486c0.066-0.25,0.195-0.375,0.387-0.375
		c0.09,0,0.174,0.02,0.252,0.059c0.145,0.074,0.217,0.186,0.217,0.334c0,0.082-0.029,0.221-0.088,0.416
		c-0.129,0.43-0.299,0.871-0.51,1.324c0.453,0.215,1.041,0.459,1.764,0.732l0.27,0.1v-3.902l-2.508,0.176l-0.064,0.006
		c-0.254,0.012-0.381-0.119-0.381-0.393c0-0.219,0.125-0.338,0.375-0.357l5.531-0.416c0.027-0.004,0.043-0.006,0.047-0.006
		c0.266,0,0.398,0.123,0.398,0.369c0,0.25-0.133,0.385-0.398,0.404l-2.109,0.152v1.67l2.461-0.182h0.023
		c0.09,0,0.162,0.029,0.217,0.088c0.078,0.082,0.117,0.186,0.117,0.311c0,0.25-0.119,0.381-0.357,0.393l-2.461,0.146V33.998z
		 M14.899,26.867l3.697-0.24c0.047-0.004,0.072-0.006,0.076-0.006c0.395,0,0.592,0.141,0.592,0.422c0,0.137-0.064,0.318-0.193,0.545
		c-0.246,0.434-0.506,0.785-0.779,1.055c-0.113,0.109-0.211,0.164-0.293,0.164c-0.055,0-0.113-0.023-0.176-0.07
		c-0.07-0.047-0.105-0.111-0.105-0.193c0-0.078,0.035-0.186,0.105-0.322c0.191-0.359,0.287-0.592,0.287-0.697
		c0-0.086-0.07-0.125-0.211-0.117l-6.984,0.463c0,0.047,0,0.098,0,0.152c0,0.98-0.199,1.471-0.598,1.471
		c-0.066,0-0.133-0.014-0.199-0.041c-0.164-0.074-0.246-0.205-0.246-0.393c0-0.082,0.031-0.211,0.094-0.387
		c0.188-0.523,0.283-1.025,0.287-1.506c0-0.266,0.1-0.398,0.299-0.398c0.188,0,0.293,0.119,0.316,0.357l3.141-0.205v-1.412
		c0-0.262,0.148-0.393,0.445-0.393c0.152,0,0.271,0.051,0.357,0.152c0.059,0.066,0.088,0.146,0.088,0.24V26.867z"/>
	<path d="M26.829,28.133l4.09-0.27c0.004,0,0.012,0,0.023,0c0.004,0,0.014,0,0.029,0c0.141,0.004,0.244,0.063,0.311,0.176
		c0.031,0.055,0.047,0.117,0.047,0.188c0,0.223-0.107,0.342-0.322,0.357l-3.557,0.234c1.281,0.898,2.646,1.6,4.096,2.104
		c0.309,0.105,0.463,0.203,0.463,0.293c0,0.07-0.086,0.141-0.258,0.211c-0.328,0.137-0.58,0.205-0.756,0.205
		c-0.125,0-0.254-0.033-0.387-0.1c-1.516-0.766-2.775-1.588-3.779-2.467v1.629c0,0.109-0.035,0.199-0.105,0.27
		c-0.078,0.078-0.184,0.117-0.316,0.117c-0.168,0-0.289-0.063-0.363-0.188c-0.035-0.055-0.053-0.121-0.053-0.199v-1.336
		c-0.594,0.586-1.4,1.162-2.42,1.729c-1.145,0.641-1.824,0.961-2.039,0.961c-0.102,0-0.178-0.041-0.229-0.123
		c-0.039-0.066-0.059-0.129-0.059-0.188c0-0.105,0.047-0.191,0.141-0.258c0.031-0.023,0.17-0.09,0.416-0.199
		c1.07-0.484,2.215-1.256,3.434-2.314l-3.264,0.217c-0.133,0.008-0.238-0.029-0.316-0.111c-0.063-0.066-0.094-0.148-0.094-0.246
		c0-0.227,0.109-0.348,0.328-0.363l2.484-0.164c-0.172-0.012-0.313-0.107-0.422-0.287c-0.168-0.277-0.314-0.494-0.439-0.65
		c-0.078-0.094-0.117-0.184-0.117-0.27c0-0.078,0.029-0.141,0.088-0.188c0.051-0.043,0.105-0.064,0.164-0.064
		c0.129,0,0.346,0.125,0.65,0.375c0.352,0.293,0.527,0.518,0.527,0.674c0,0.219-0.123,0.354-0.369,0.404l1.535-0.1V26.41
		l-0.111,0.018c-0.332,0.055-0.906,0.137-1.723,0.246c-0.305,0.043-0.602,0.084-0.891,0.123c-0.082,0.012-0.141,0.018-0.176,0.018
		c-0.219,0-0.328-0.1-0.328-0.299c0-0.156,0.074-0.258,0.223-0.305c0.035-0.012,0.219-0.037,0.551-0.076
		c1.527-0.18,3.178-0.514,4.951-1.002c0.316-0.086,0.514-0.129,0.592-0.129c0.27,0,0.404,0.135,0.404,0.404
		c0,0.188-0.133,0.322-0.398,0.404c-0.465,0.141-1.123,0.279-1.975,0.416l-0.281,0.041V28.133z M28.886,35.182l-4.734,0.287
		c-0.031,0.242-0.168,0.363-0.41,0.363c-0.27,0-0.41-0.129-0.422-0.387l-0.205-3.674c-0.004-0.32,0.146-0.48,0.451-0.48
		c0.141,0,0.25,0.051,0.328,0.152l5.197-0.404c0.027,0,0.07,0,0.129,0c0.492,0,0.738,0.242,0.738,0.727
		c0,0.055-0.002,0.102-0.006,0.141l-0.24,3.539c-0.016,0.258-0.16,0.387-0.434,0.387c-0.18,0-0.301-0.068-0.363-0.205
		c-0.035-0.078-0.051-0.15-0.047-0.217l0.006-0.07L28.886,35.182z M23.999,32.123l0.047,0.938l2.045-0.141v-0.967L23.999,32.123z
		 M26.091,33.594l-2.016,0.141l0.053,1.043l1.963-0.123V33.594z M26.905,31.889v0.973l2.139-0.146l0.047-0.738
		c0-0.012,0-0.023,0-0.035c0-0.137-0.066-0.205-0.199-0.205c-0.016,0-0.029,0-0.041,0L26.905,31.889z M28.927,34.484l0.07-1.096
		l-2.092,0.146v1.072L28.927,34.484z M29.185,26.234c0.102,0,0.189,0.029,0.264,0.088c0.098,0.078,0.146,0.18,0.146,0.305
		c0,0.215-0.258,0.555-0.773,1.02c-0.27,0.242-0.461,0.363-0.574,0.363c-0.07,0-0.141-0.033-0.211-0.1
		c-0.051-0.051-0.076-0.105-0.076-0.164c0-0.07,0.041-0.156,0.123-0.258c0.211-0.258,0.416-0.557,0.615-0.896
		C28.839,26.354,29.001,26.234,29.185,26.234z"/>
	<path d="M38.659,27.553c0.086,0.18,0.129,0.445,0.129,0.797c0,1.168-0.457,2.479-1.371,3.932c-0.68,1.078-1.316,1.617-1.91,1.617
		c-0.418,0-0.789-0.213-1.113-0.639c-0.414-0.539-0.621-1.242-0.621-2.109c0-0.902,0.348-1.744,1.043-2.525
		c0.547-0.617,1.225-1.088,2.033-1.412c0.73-0.297,1.488-0.445,2.273-0.445c1.102,0,2.016,0.332,2.742,0.996
		c0.781,0.711,1.172,1.627,1.172,2.748c0,1.016-0.318,1.9-0.955,2.654c-0.48,0.57-1.09,1.004-1.828,1.301
		c-0.125,0.051-0.234,0.076-0.328,0.076c-0.121,0-0.211-0.041-0.27-0.123c-0.043-0.059-0.064-0.117-0.064-0.176
		c0-0.086,0.039-0.168,0.117-0.246c0.039-0.035,0.195-0.131,0.469-0.287c0.43-0.238,0.811-0.574,1.143-1.008
		c0.504-0.652,0.756-1.377,0.756-2.174c0-0.934-0.334-1.691-1.002-2.273c-0.555-0.48-1.199-0.721-1.934-0.721l-0.445,0.018h-0.012
		h-0.012H38.659z M37.862,27.693c-1.16,0.32-2.043,0.908-2.648,1.764c-0.387,0.547-0.58,1.105-0.58,1.676
		c0,0.621,0.133,1.135,0.398,1.541c0.168,0.258,0.33,0.387,0.486,0.387c0.285,0,0.637-0.32,1.055-0.961
		c0.426-0.652,0.768-1.361,1.025-2.127c0.199-0.602,0.299-1.143,0.299-1.623C37.897,28.217,37.886,27.998,37.862,27.693z"/>
	<path d="M49.446,30.201l-1.078,0.117v1.148l1.535-0.223c0.02,0,0.041,0,0.064,0c0.238,0.016,0.357,0.133,0.357,0.352
		c0,0.199-0.113,0.314-0.34,0.346l-1.617,0.234v1.307c0.617-0.152,1.143-0.297,1.576-0.434c0.305-0.094,0.498-0.141,0.58-0.141
		c0.191,0,0.287,0.111,0.287,0.334c0,0.125-0.076,0.225-0.229,0.299c-0.32,0.16-1.102,0.41-2.344,0.75
		c-0.508,0.141-1.061,0.281-1.658,0.422s-0.939,0.211-1.025,0.211c-0.262,0-0.393-0.145-0.393-0.434
		c0-0.184,0.082-0.309,0.246-0.375c0.059-0.02,0.232-0.055,0.521-0.105c0.352-0.063,0.9-0.176,1.646-0.34v-1.383l-1.594,0.229
		c-0.039,0.008-0.068,0.012-0.088,0.012c-0.113,0.004-0.203-0.041-0.27-0.135c-0.043-0.059-0.064-0.129-0.064-0.211
		c0-0.207,0.111-0.326,0.334-0.357l1.682-0.246v-1.172l-1.031,0.117c-0.027,0.203-0.156,0.305-0.387,0.305
		c-0.223,0-0.342-0.125-0.357-0.375l-0.264-4.248c0-0.078,0.02-0.145,0.059-0.199c0.074-0.098,0.182-0.146,0.322-0.146
		c0.168,0,0.285,0.068,0.352,0.205l3.299-0.398c0.066-0.008,0.131-0.012,0.193-0.012c0.465,0,0.697,0.229,0.697,0.686
		c0,0.023-0.002,0.055-0.006,0.094l-0.24,3.709c-0.02,0.23-0.152,0.346-0.398,0.346C49.597,30.488,49.474,30.393,49.446,30.201z
		 M47.577,27.775v-1.154l-1.242,0.158l0.064,1.125L47.577,27.775z M47.577,29.686v-1.236l-1.137,0.123l0.07,1.23L47.577,29.686z
		 M49.604,27.564l0.059-0.926c0-0.172-0.074-0.258-0.223-0.258c-0.012,0-0.029,0.002-0.053,0.006l-1.02,0.129v1.178L49.604,27.564z
		 M49.487,29.475l0.076-1.236l-1.195,0.129v1.23L49.487,29.475z M53.396,28.162c0.094,0.07,0.189,0.146,0.287,0.229
		c0.121,0.102,0.182,0.225,0.182,0.369c0,0.09-0.027,0.172-0.082,0.246l1.33-0.135c0.066-0.008,0.121-0.012,0.164-0.012
		c0.352,0,0.527,0.135,0.527,0.404c0,0.289-0.215,0.814-0.645,1.576c-0.152,0.27-0.273,0.461-0.363,0.574
		c-0.098,0.129-0.199,0.193-0.305,0.193c-0.059,0-0.123-0.021-0.193-0.064c-0.094-0.059-0.141-0.145-0.141-0.258
		c0-0.07,0.039-0.178,0.117-0.322c0.117-0.223,0.262-0.586,0.434-1.09c0.023-0.063,0.035-0.105,0.035-0.129
		c0-0.066-0.049-0.094-0.146-0.082l-3.539,0.434c-0.043,0.004-0.082,0.006-0.117,0.006c-0.23,0-0.346-0.139-0.346-0.416
		c0-0.23,0.121-0.357,0.363-0.381l2.215-0.234c-0.023-0.016-0.049-0.039-0.076-0.07c-0.402-0.391-0.824-0.742-1.266-1.055
		c-0.129-0.094-0.193-0.189-0.193-0.287c0-0.059,0.021-0.119,0.064-0.182c0.055-0.082,0.129-0.123,0.223-0.123
		c0.082,0,0.195,0.037,0.34,0.111c0.23,0.109,0.422,0.213,0.574,0.311c0.406-0.363,0.746-0.721,1.02-1.072
		c0.074-0.094,0.111-0.164,0.111-0.211c0-0.059-0.045-0.088-0.135-0.088c-0.008,0-0.031,0.002-0.07,0.006l-2.52,0.264
		c-0.035,0.004-0.066,0.006-0.094,0.006c-0.266,0-0.398-0.123-0.398-0.369c0-0.238,0.117-0.369,0.352-0.393l3.393-0.334
		c0.027-0.004,0.053-0.006,0.076-0.006c0.191,0,0.348,0.055,0.469,0.164c0.102,0.086,0.152,0.189,0.152,0.311
		c0,0.137-0.082,0.307-0.246,0.51C54.417,27.219,53.899,27.752,53.396,28.162z M53.501,30.553v4.365
		c0,0.551-0.213,0.826-0.639,0.826c-0.23,0-0.621-0.109-1.172-0.328c-0.23-0.09-0.418-0.174-0.563-0.252
		c-0.141-0.078-0.211-0.176-0.211-0.293c0-0.184,0.09-0.275,0.27-0.275c0.074,0,0.186,0.023,0.334,0.07
		c0.352,0.105,0.643,0.158,0.873,0.158c0.164,0,0.246-0.092,0.246-0.275v-3.996c0-0.125,0.045-0.225,0.135-0.299
		c0.086-0.066,0.184-0.1,0.293-0.1c0.148,0,0.266,0.051,0.352,0.152C53.474,30.373,53.501,30.455,53.501,30.553z"/>
	<path d="M63.392,32.398c0.684,0.469,1.479,0.912,2.385,1.33c0.602,0.277,1.182,0.498,1.74,0.662
		c0.367,0.109,0.551,0.213,0.551,0.311c0,0.066-0.078,0.131-0.234,0.193c-0.363,0.148-0.641,0.223-0.832,0.223
		c-0.25,0-0.771-0.221-1.564-0.662c-0.813-0.449-1.627-0.996-2.443-1.641v2.584c0,0.09-0.023,0.166-0.07,0.229
		c-0.09,0.113-0.211,0.17-0.363,0.17c-0.172,0-0.297-0.064-0.375-0.193c-0.035-0.063-0.053-0.131-0.053-0.205v-2.432
		c-0.93,0.781-1.998,1.426-3.205,1.934c-0.578,0.242-0.947,0.363-1.107,0.363c-0.195,0-0.293-0.105-0.293-0.316
		c0-0.094,0.041-0.172,0.123-0.234c0.039-0.027,0.188-0.088,0.445-0.182c0.828-0.297,1.744-0.801,2.748-1.512
		c0.223-0.156,0.449-0.328,0.68-0.516l-3.445,0.205c-0.094,0.008-0.18-0.012-0.258-0.059c-0.102-0.063-0.152-0.162-0.152-0.299
		c0-0.227,0.117-0.348,0.352-0.363l4.113-0.252v-0.516c0-0.121,0.045-0.217,0.135-0.287c0.082-0.063,0.18-0.094,0.293-0.094
		c0.117,0,0.219,0.033,0.305,0.1s0.129,0.156,0.129,0.27v0.475l4.178-0.258c0.262,0,0.393,0.121,0.393,0.363
		s-0.115,0.369-0.346,0.381L63.392,32.398z M64.376,26.715l-0.064,0.416c-0.035,0.258-0.164,0.387-0.387,0.387
		c-0.238,0-0.361-0.133-0.369-0.398l0.023-0.357l-2.32,0.123l0.053,0.51c0.004,0.023,0.006,0.047,0.006,0.07
		c0,0.234-0.123,0.352-0.369,0.352c-0.254,0-0.4-0.125-0.439-0.375l-0.076-0.51l-2.338,0.129c-0.027,0-0.043,0-0.047,0
		c-0.117,0-0.211-0.043-0.281-0.129c-0.051-0.063-0.076-0.141-0.076-0.234c0-0.227,0.111-0.346,0.334-0.357l2.297-0.129
		l-0.111-0.715c-0.004-0.023-0.006-0.049-0.006-0.076c0-0.16,0.07-0.277,0.211-0.352c0.074-0.035,0.152-0.053,0.234-0.053
		c0.27,0,0.418,0.137,0.445,0.41l0.082,0.738l2.449-0.129l0.053-0.715c0.02-0.281,0.166-0.422,0.439-0.422
		c0.109,0,0.205,0.027,0.287,0.082c0.109,0.078,0.164,0.188,0.164,0.328c0,0.035-0.002,0.063-0.006,0.082l-0.082,0.598l2.35-0.129
		c0.082,0,0.15,0.014,0.205,0.041c0.137,0.066,0.205,0.176,0.205,0.328c0,0.223-0.111,0.34-0.334,0.352L64.376,26.715z
		 M59.231,29.404c0.148,0,0.393,0.191,0.732,0.574c0.332,0.375,0.498,0.646,0.498,0.814c0,0.129-0.055,0.236-0.164,0.322
		c-0.082,0.063-0.174,0.094-0.275,0.094c-0.188,0-0.34-0.117-0.457-0.352c-0.223-0.434-0.404-0.76-0.545-0.979
		c-0.051-0.082-0.076-0.156-0.076-0.223c0-0.082,0.041-0.15,0.123-0.205C59.118,29.42,59.173,29.404,59.231,29.404z M64.458,27.465
		c0.176,0,0.299,0.066,0.369,0.199c0.031,0.055,0.047,0.115,0.047,0.182c0,0.199-0.117,0.338-0.352,0.416
		c-0.508,0.168-1.363,0.357-2.566,0.568c-1.004,0.176-1.605,0.264-1.805,0.264c-0.227,0-0.34-0.117-0.34-0.352
		c0-0.133,0.074-0.225,0.223-0.275c0.031-0.012,0.166-0.035,0.404-0.07c1.02-0.145,2.197-0.418,3.533-0.82
		C64.214,27.502,64.376,27.465,64.458,27.465z M61.979,28.936c0.176,0,0.408,0.176,0.697,0.527c0.32,0.398,0.48,0.688,0.48,0.867
		c0,0.121-0.049,0.221-0.146,0.299c-0.078,0.063-0.172,0.094-0.281,0.094c-0.191,0-0.338-0.123-0.439-0.369
		c-0.16-0.375-0.322-0.674-0.486-0.896c-0.066-0.094-0.1-0.178-0.1-0.252s0.029-0.137,0.088-0.188
		C61.851,28.963,61.913,28.936,61.979,28.936z M65.882,28.584c0.074,0,0.15,0.02,0.229,0.059c0.164,0.078,0.246,0.205,0.246,0.381
		c0,0.223-0.324,0.732-0.973,1.529c-0.277,0.34-0.49,0.51-0.639,0.51c-0.043,0-0.094-0.018-0.152-0.053
		c-0.082-0.051-0.123-0.129-0.123-0.234c0-0.078,0.045-0.182,0.135-0.311c0.336-0.504,0.627-1.023,0.873-1.559
		C65.575,28.691,65.71,28.584,65.882,28.584z"/>
</g>
<g>
	<g>
		<path d="M57.817,14.687c0.36,0.511,0.854,0.932,0.836,1.609c-0.023,0.847-1.044,0.752-1.589,0.501
			c-0.767-0.353-0.906-2.347,0.114-2.394c0.252-0.012,0.391-0.312,0.059-0.297c-1.483,0.068-1.714,2.405-0.455,2.985
			c0.651,0.299,1.558,0.28,2.095-0.23c0.79-0.75-0.186-1.765-0.612-2.372C58.159,14.341,57.693,14.51,57.817,14.687L57.817,14.687z"
			/>
	</g>
</g>
<g>
	<g>
		<path d="M62.852,16.713c0.395,0.282,1.085,0.981,0.659,1.491c-0.251,0.301-1.194,0.02-1.492-0.092
			c-1.088-0.408-0.598-2.06,0.5-1.565c0.159,0.072,0.597-0.152,0.379-0.25c-0.601-0.271-1.35-0.184-1.763,0.377
			c-0.452,0.615-0.247,1.344,0.437,1.664c0.594,0.279,1.562,0.431,2.159,0.093c0.905-0.513,0.057-1.572-0.5-1.967
			C63.086,16.359,62.646,16.567,62.852,16.713L62.852,16.713z"/>
	</g>
</g>
<g>
	<g>
		<path d="M61.282,7.69c0.087-1.895,0.734-3.079,1.713-4.67c0.258-0.42,2.191-3.814,3.156-1.274c0.955,2.513-1.175,4.036-1.29,6.183
			c-0.051,0.97,1.461,1.383,2.269,1.068c0.653-0.254,1.287-1.408,1.763-1.898c0.618-0.636,3.802-3.848,5.006-1.848
			c0.721,1.198-0.061,3.152-0.721,4.042c0.313-0.423-2.895,2.177-2.773,2.588c1.021,3.452,1.69,5.46-3.222,6.777
			c-0.286,0.077-0.234,0.27,0.051,0.193c1.557-0.417,2.995-0.781,4.11-2.002c0.602-0.66,0.423-1.774,0.377-2.56
			c-0.076-0.632-0.278-1.22-0.605-1.766c-0.56-1.197,1.145-1.883,1.679-2.417c1.018-1.019,3.426-4.36,1.152-5.705
			c-1.074-0.635-1.498-0.321-2.581,0.352c-0.783,0.487-1.602,1.041-2.254,1.696c-0.437,0.433-0.867,0.87-1.292,1.313
			c-0.352,0.361-3.323,1.97-2.206-0.544c0.556-1.25,2.563-6.279,0.097-7.144C63.212-0.801,60.869,6.3,60.8,7.82
			C60.795,7.927,61.275,7.855,61.282,7.69L61.282,7.69z"/>
	</g>
</g>
<g>
	<g>
		<path d="M60.185,7.731c-0.805,0.733-1.811,1.092-2.394,2.053c-0.668,1.099-0.156,2.708,0.009,3.868
			c0.019,0.13,0.505,0.023,0.482-0.13c-0.188-1.328-0.636-2.785,0.114-4.02c0.471-0.774,1.51-1.127,2.167-1.725
			C60.76,7.599,60.281,7.644,60.185,7.731L60.185,7.731z"/>
	</g>
</g>
<g>
	<g>
		<path d="M61.477,11.56c-0.171,0.391-0.187,0.803,0.314,0.871c0.097,0.013,0.224-0.024,0.285-0.104
			c0.38-0.495-0.02-0.92-0.58-0.738c-0.291,0.094-0.206,0.428,0.09,0.332c0.028,0.087,0.057,0.175,0.086,0.262
			c0.095-0.035,0.19-0.069,0.285-0.104c-0.229-0.031-0.059-0.371-0.018-0.463C62.051,11.361,61.563,11.363,61.477,11.56
			L61.477,11.56z"/>
	</g>
</g>
<g>
	<g>
		<path d="M65.633,13.486c0.015,0.03,0.03,0.061,0.046,0.091c0.096,0.192,0.568,0.055,0.482-0.129
			c-0.067-0.143-0.141-0.283-0.212-0.425c-0.077-0.156-0.342-0.113-0.44,0.004c-0.193,0.231-0.21,0.452-0.211,0.75
			c-0.002,0.214,0.352,0.152,0.442,0.038c0.126-0.159,0.207-0.341,0.333-0.5c0.187-0.237-0.274-0.278-0.398-0.121
			c-0.126,0.159-0.207,0.341-0.333,0.5c0.147,0.013,0.295,0.025,0.442,0.038c0.001-0.207-0.021-0.413,0.123-0.584
			c-0.146,0.001-0.294,0.003-0.44,0.004c0.07,0.141,0.145,0.281,0.212,0.424c0.16-0.043,0.321-0.086,0.482-0.129
			c-0.016-0.03-0.03-0.061-0.046-0.091C66.018,13.162,65.544,13.308,65.633,13.486L65.633,13.486z"/>
	</g>
</g>
<g>
	<g>
		<path d="M61.633,14.32c0.063,1.218,1.688,1.019,2.396,0.525c0.27-0.188-0.138-0.301-0.311-0.181
			c-0.571,0.398-1.558,0.392-1.604-0.475C62.105,14.003,61.622,14.11,61.633,14.32L61.633,14.32z"/>
	</g>
</g>
</svg>
